
<svg width="24" height="24" viewBox="0 0 24 24" xmlns="http://www.w3.org/2000/svg"> <path d="M9.504 12c0-.688.244-1.275.732-1.764A2.404 2.404 0 0 1 12 9.504c.688 0 1.275.244 1.764.732.488.489.732 1.076.732 1.764s-.244 1.275-.732 1.764a2.404 2.404 0 0 1-1.764.732 2.404 2.404 0 0 1-1.764-.732A2.404 2.404 0 0 1 9.504 12zm7.992-3.504c0 .14-.049.26-.146.358a.473.473 0 0 1-.346.146h-1.5a.486.486 0 0 1-.358-.146.486.486 0 0 1-.146-.358v-1.5c0-.133.049-.248.146-.346a.486.486 0 0 1 .358-.146h1.5c.133 0 .248.049.346.146a.473.473 0 0 1 .146.346v1.5zm0 2.508v6a.473.473 0 0 1-.146.346.473.473 0 0 1-.346.146H6.996a.473.473 0 0 1-.346-.146.473.473 0 0 1-.146-.346v-6H8.12a4.004 4.004 0 0 0-.117.996c0 1.102.389 2.043 1.166 2.824.777.781 1.72 1.172 2.83 1.172s2.053-.39 2.83-1.172A3.859 3.859 0 0 0 15.996 12c0-.36-.039-.691-.117-.996h1.617zM12 0c1.625 0 3.178.316 4.658.95 1.48.632 2.758 1.486 3.832 2.56 1.074 1.074 1.928 2.351 2.56 3.832.634 1.48.95 3.033.95 4.658a11.73 11.73 0 0 1-.95 4.658c-.632 1.48-1.486 2.758-2.56 3.832-1.074 1.074-2.351 1.928-3.832 2.56A11.73 11.73 0 0 1 12 24a11.73 11.73 0 0 1-4.658-.95c-1.48-.632-2.758-1.486-3.832-2.56-1.074-1.074-1.928-2.351-2.56-3.832A11.73 11.73 0 0 1 0 12c0-1.625.316-3.178.95-4.658.632-1.48 1.486-2.758 2.56-3.832C4.584 2.436 5.86 1.582 7.342.95A11.73 11.73 0 0 1 12 0zm6.996 17.004V6.996c0-.555-.193-1.025-.58-1.412a1.922 1.922 0 0 0-1.412-.58H6.996c-.555 0-1.025.193-1.412.58-.387.387-.58.857-.58 1.412v10.008c0 .555.193 1.025.58 1.412.387.387.857.58 1.412.58h10.008c.555 0 1.025-.193 1.412-.58.387-.387.58-.857.58-1.412z" fill="#C32AA3" fill-rule="evenodd"></path> </svg>