<svg width="107" height="70" viewBox="0 0 107 70" xmlns="http://www.w3.org/2000/svg"><title>ParksAustralia-stacked [WHITE]</title><g fill="#FFF" fill-rule="evenodd"><path d="M4.529 50.389l-1.11-2.554-1.143 2.554h2.253zm.187.405H2.084l-.314.721c-.102.24-.153.44-.153.596 0 .208.083.361.252.46.1.058.343.102.731.13v.203H.122v-.202c.267-.04.487-.15.66-.328.171-.182.383-.556.637-1.121l2.665-5.918h.104l2.687 6.081c.257.577.468.94.632 1.09.125.112.3.178.528.196v.202H4.43v-.202h.148c.29 0 .493-.04.61-.12a.293.293 0 0 0 .122-.252.666.666 0 0 0-.034-.202 5.092 5.092 0 0 0-.165-.41l-.395-.924zm7.886-3.003v4.003c0 .39.037.634.11.733.073.095.222.155.446.18v.197h-2.094v-.683c-.246.291-.491.505-.737.64-.245.13-.52.196-.824.196-.29 0-.548-.087-.775-.262a1.311 1.311 0 0 1-.45-.623c-.077-.238-.116-.65-.116-1.242v-2.029c0-.386-.036-.627-.11-.721-.07-.095-.218-.157-.445-.187v-.202h2.094v3.495c0 .364.016.6.05.705a.485.485 0 0 0 .164.24.444.444 0 0 0 .264.083c.132 0 .25-.035.357-.104.147-.095.323-.286.528-.575v-2.734c0-.386-.037-.627-.11-.721-.07-.095-.218-.157-.445-.187v-.202h2.093m4.151-.141l.083 1.743h-.187c-.224-.517-.456-.87-.698-1.06-.238-.19-.476-.285-.714-.285a.536.536 0 0 0-.385.153.457.457 0 0 0-.16.345.45.45 0 0 0 .11.284c.117.15.445.407.984.771.539.361.892.67 1.06.925.173.251.259.534.26.847 0 .284-.073.563-.215.837a1.498 1.498 0 0 1-.605.629c-.26.145-.548.218-.863.218-.245 0-.573-.076-.983-.23a.835.835 0 0 0-.226-.06c-.12 0-.221.092-.302.274h-.181l-.088-1.837h.187c.165.48.39.842.676 1.082.289.241.562.361.818.361a.594.594 0 0 0 .43-.158.529.529 0 0 0 .17-.394.672.672 0 0 0-.166-.454c-.11-.127-.355-.32-.736-.58-.56-.386-.923-.681-1.088-.885a1.54 1.54 0 0 1-.362-.99c0-.394.135-.75.406-1.067.275-.32.67-.48 1.187-.481.278 0 .548.067.808.203.099.054.18.081.242.081a.292.292 0 0 0 .159-.038c.04-.029.104-.108.192-.235h.187m2.721-1.729v1.871h1.22v.542h-1.22v3.155c0 .295.012.487.038.574a.442.442 0 0 0 .149.208c.07.051.133.076.192.076.238 0 .463-.18.676-.54l.165.12c-.297.7-.779 1.05-1.446 1.05a1.3 1.3 0 0 1-.83-.269c-.223-.182-.366-.384-.428-.607-.037-.124-.055-.459-.055-1.006v-2.761h-.67v-.192a7.014 7.014 0 0 0 1.176-1.023c.326-.357.61-.756.851-1.198h.182m3.728 1.871v1.16c.341-.53.64-.879.896-1.05.257-.176.504-.263.742-.263.205 0 .368.064.49.191.124.124.186.3.186.53 0 .246-.06.435-.181.57a.547.547 0 0 1-.43.202.746.746 0 0 1-.505-.186 3.089 3.089 0 0 0-.253-.208.244.244 0 0 0-.126-.033.463.463 0 0 0-.302.12c-.15.125-.264.302-.34.531a3.69 3.69 0 0 0-.177 1.17v1.176l.006.306c0 .208.013.342.038.4a.458.458 0 0 0 .193.219c.088.043.234.07.44.081v.197h-2.776v-.197c.224-.018.374-.078.45-.18.081-.105.122-.38.122-.826v-2.827c0-.291-.015-.478-.044-.558a.442.442 0 0 0-.16-.224c-.07-.047-.192-.08-.368-.099v-.202h2.1m5.136 3.959v-1.71c-.444.259-.773.536-.99.83a1.01 1.01 0 0 0-.214.597c0 .168.06.316.182.443.09.098.22.148.384.148.183 0 .396-.102.638-.306zm0 .4c-.627.55-1.19.825-1.687.825a1 1 0 0 1-.731-.284.976.976 0 0 1-.292-.722c0-.39.169-.74.506-1.05.337-.313 1.071-.729 2.204-1.247v-.514c0-.386-.023-.628-.067-.727a.555.555 0 0 0-.235-.263.711.711 0 0 0-.396-.114 1.02 1.02 0 0 0-.588.158c-.096.066-.143.142-.143.23 0 .076.051.171.153.284.14.157.21.308.21.454a.609.609 0 0 1-.204.46.73.73 0 0 1-.522.185.852.852 0 0 1-.583-.207.637.637 0 0 1-.23-.487c0-.263.104-.512.313-.75.208-.24.5-.424.874-.552a3.62 3.62 0 0 1 1.165-.191c.487 0 .871.104 1.154.312.285.204.47.426.555.667.05.153.076.505.077 1.055v1.985c0 .234.009.381.027.443a.257.257 0 0 0 .083.131.19.19 0 0 0 .126.045c.095 0 .192-.068.291-.203l.165.131c-.183.27-.374.467-.572.59a1.23 1.23 0 0 1-.664.181c-.293 0-.522-.067-.687-.202-.165-.138-.266-.346-.302-.623zm4.465-5.978v5.77c0 .327.042.537.126.63.084.09.249.14.494.154v.178H30.65v-.178c.228-.007.396-.066.506-.179.073-.076.11-.278.11-.606v-4.806c0-.324-.042-.53-.126-.62-.085-.093-.248-.145-.49-.159v-.184h2.155m3.12 1.619v4.052c0 .361.042.593.126.695.084.098.25.155.495.17v.196H33.77v-.197c.227-.007.395-.072.505-.196.074-.084.11-.306.11-.668v-2.986c0-.36-.042-.59-.126-.689-.084-.102-.247-.16-.49-.175v-.202h2.155zm-.77-2.477a.82.82 0 0 1 .605.25.812.812 0 0 1 .247.597.801.801 0 0 1-.252.596.817.817 0 0 1-.6.247.818.818 0 0 1-.599-.247.81.81 0 0 1-.247-.596c0-.233.083-.431.247-.596a.813.813 0 0 1 .6-.251zm4.389 6.436v-1.71c-.443.259-.773.536-.99.83a1.01 1.01 0 0 0-.213.597c0 .168.06.316.18.443a.5.5 0 0 0 .385.148c.184 0 .396-.102.638-.306zm0 .4c-.627.55-1.189.825-1.687.825-.293 0-.537-.094-.731-.284a.975.975 0 0 1-.291-.722c0-.39.168-.74.505-1.05.337-.313 1.072-.729 2.204-1.247v-.514c0-.386-.022-.628-.066-.727a.556.556 0 0 0-.236-.263.711.711 0 0 0-.396-.114c-.238 0-.434.053-.588.158-.096.066-.143.142-.143.23 0 .076.051.171.154.284.139.157.208.308.209.454a.608.608 0 0 1-.204.46.73.73 0 0 1-.521.185.851.851 0 0 1-.583-.207.636.636 0 0 1-.231-.487c0-.263.104-.512.313-.75.21-.24.5-.424.874-.552a3.61 3.61 0 0 1 1.165-.191c.487 0 .872.104 1.154.312.286.204.47.426.555.667.051.153.077.505.077 1.055v1.985c0 .234.009.381.028.443a.257.257 0 0 0 .082.131c.037.03.078.045.127.045.095 0 .191-.068.29-.203l.165.131c-.183.27-.373.467-.571.59a1.23 1.23 0 0 1-.665.181c-.293 0-.522-.067-.687-.202-.165-.138-.265-.346-.302-.623zm4.44-4.359v.662c.264-.285.517-.49.76-.618.24-.131.5-.197.78-.197.333 0 .61.093.829.278.22.183.366.41.44.684.058.208.087.607.087 1.198v1.99c0 .394.035.64.105.74.073.094.223.154.45.18v.196h-2.599v-.197c.194-.025.333-.105.418-.24.058-.091.088-.317.088-.678v-2.275c0-.42-.017-.684-.05-.793a.467.467 0 0 0-.17-.252.404.404 0 0 0-.258-.093c-.315 0-.609.224-.88.673v2.74c0 .383.035.625.105.727.073.102.207.166.4.191v.197h-2.598v-.197c.216-.021.37-.09.461-.207.063-.08.094-.317.094-.711V48.9c0-.386-.037-.627-.11-.721-.07-.095-.218-.157-.445-.187v-.202h2.093m13.572-2.471v2.614h-.204c-.246-.714-.614-1.257-1.104-1.63a2.611 2.611 0 0 0-1.61-.557c-.557 0-1.02.157-1.39.47-.37.31-.633.744-.786 1.302a6.425 6.425 0 0 0-.232 1.717c0 .711.085 1.334.253 1.87.17.536.44.93.814 1.181.377.252.825.378 1.34.378.18 0 .364-.018.55-.055.19-.04.385-.097.583-.17v-1.542c0-.291-.02-.48-.06-.563a.56.56 0 0 0-.254-.235.929.929 0 0 0-.455-.104h-.193v-.203h3.621v.203c-.275.019-.467.057-.577.115a.548.548 0 0 0-.247.279c-.033.07-.05.239-.05.508v1.543a7.18 7.18 0 0 1-1.489.475 7.642 7.642 0 0 1-1.6.164c-.706 0-1.294-.095-1.763-.284a4.53 4.53 0 0 1-1.236-.755 3.623 3.623 0 0 1-.836-1.055 3.667 3.667 0 0 1-.384-1.69c0-1.115.393-2.058 1.182-2.828.787-.768 1.778-1.153 2.972-1.153.37 0 .704.029 1 .087.161.03.421.113.781.252.362.135.577.202.643.202a.439.439 0 0 0 .285-.11c.089-.076.169-.218.242-.426h.204m3.588 2.707a.648.648 0 0 0-.484.213c-.13.14-.22.416-.263.832-.04.412-.06.986-.06 1.723 0 .39.025.754.076 1.093.04.26.127.456.259.59a.614.614 0 0 0 .45.203.624.624 0 0 0 .413-.136.923.923 0 0 0 .285-.52c.074-.346.11-1.047.11-2.1 0-.62-.035-1.044-.104-1.274-.07-.234-.173-.403-.308-.509a.579.579 0 0 0-.374-.115zm-.021-.388c.446 0 .862.115 1.247.345.384.23.676.555.873.978.202.423.303.886.303 1.39 0 .725-.185 1.332-.555 1.82-.447.591-1.065.886-1.853.886-.772 0-1.368-.269-1.785-.809a2.979 2.979 0 0 1-.627-1.876c0-.733.213-1.37.638-1.914.428-.547 1.014-.82 1.759-.82zm4.847 5.419l-1.732-3.965c-.208-.477-.37-.78-.489-.907a.657.657 0 0 0-.373-.192v-.202h2.73v.202c-.171 0-.288.031-.35.094a.371.371 0 0 0-.132.284c0 .135.08.388.241.76l.846 1.92.676-1.658c.194-.473.292-.809.292-1.006a.336.336 0 0 0-.127-.273c-.08-.073-.225-.113-.434-.12v-.203H68.8v.202a.688.688 0 0 0-.396.181c-.103.098-.257.388-.462.87l-1.714 4.013h-.259m5.521-3.259c0-.587-.032-.99-.099-1.209a.966.966 0 0 0-.296-.497.456.456 0 0 0-.308-.099c-.19 0-.346.094-.467.279-.216.325-.324.77-.324 1.335v.191h1.494zm1.353.367h-2.82c.033.677.214 1.214.544 1.607.253.303.557.454.912.454.22 0 .42-.06.6-.18.179-.124.372-.345.576-.662l.188.12c-.28.566-.586.967-.924 1.203a2 2 0 0 1-1.17.35c-.762 0-1.34-.291-1.731-.875-.315-.47-.473-1.053-.473-1.75 0-.853.23-1.53.693-2.034.465-.507 1.009-.76 1.631-.76.52 0 .971.213 1.353.64.384.423.591 1.052.62 1.887zm2.437-2.374v1.16c.34-.53.639-.879.895-1.05.257-.176.504-.263.742-.263.205 0 .368.064.49.191.124.124.186.3.186.53 0 .246-.06.435-.181.57a.546.546 0 0 1-.43.202.745.745 0 0 1-.504-.186 3.208 3.208 0 0 0-.253-.208.247.247 0 0 0-.126-.033.462.462 0 0 0-.303.12c-.15.125-.263.302-.34.531a3.703 3.703 0 0 0-.177 1.17v1.176l.006.306c0 .208.013.342.039.4a.456.456 0 0 0 .192.219c.088.043.235.07.44.081v.197H73.18v-.197c.224-.018.373-.078.45-.18.08-.105.12-.38.121-.826v-2.827c0-.291-.015-.478-.043-.558a.44.44 0 0 0-.16-.224c-.07-.047-.193-.08-.368-.099v-.202h2.098m4.739 0v.662c.264-.285.516-.49.759-.618.24-.131.502-.197.78-.197.333 0 .61.093.83.278.22.183.365.41.44.684.058.208.087.607.087 1.198v1.99c0 .394.035.64.105.74.073.094.223.154.45.18v.196H80.87v-.197c.194-.025.333-.105.418-.24.058-.091.087-.317.087-.678v-2.275c0-.42-.016-.684-.049-.793a.467.467 0 0 0-.17-.252.404.404 0 0 0-.259-.093c-.315 0-.608.224-.879.673v2.74c0 .383.035.625.104.727.074.102.207.166.401.191v.197h-2.599v-.197c.216-.021.37-.09.462-.207.062-.08.093-.317.093-.711V48.9c0-.386-.036-.627-.11-.721-.07-.095-.218-.157-.445-.187v-.202h2.094m5.952.001v.673c.284-.307.544-.52.782-.64.242-.124.505-.186.791-.186.33 0 .606.077.83.23.223.153.396.386.516.7.294-.329.574-.565.841-.711.271-.146.553-.219.846-.22.356 0 .638.083.847.247.212.16.359.367.44.618.084.248.125.645.125 1.192v2.095c0 .393.035.638.105.733.074.095.223.157.45.185v.197H89.89v-.197c.21-.018.363-.098.462-.24.066-.099.099-.325.099-.678V49.59c0-.456-.018-.746-.055-.87a.497.497 0 0 0-.176-.274.427.427 0 0 0-.275-.093.816.816 0 0 0-.478.176 2.142 2.142 0 0 0-.488.514v2.745c0 .368.03.6.093.694.084.135.245.21.484.224v.197h-2.66v-.197a.588.588 0 0 0 .335-.103.452.452 0 0 0 .165-.23c.03-.091.043-.286.044-.585V49.59c0-.464-.018-.753-.055-.87a.53.53 0 0 0-.188-.274.436.436 0 0 0-.274-.098.74.74 0 0 0-.402.115c-.171.113-.354.306-.55.58v2.745c0 .36.036.6.106.716.073.113.223.18.45.202v.197h-2.648v-.197c.215-.021.37-.09.461-.207.063-.08.093-.317.093-.711V48.9c0-.386-.036-.627-.11-.721-.069-.095-.217-.157-.444-.187v-.202h2.093m9.792 2.008c0-.587-.032-.99-.099-1.209a.966.966 0 0 0-.296-.497.455.455 0 0 0-.308-.099c-.19 0-.346.094-.467.279-.216.325-.324.77-.324 1.335v.191h1.494zm1.352.367h-2.819c.034.677.214 1.214.544 1.607.253.303.557.454.912.454.22 0 .42-.06.599-.18.18-.124.372-.345.577-.662l.187.12c-.278.566-.586.967-.923 1.203a2 2 0 0 1-1.17.35c-.762 0-1.34-.291-1.732-.875-.314-.47-.472-1.053-.472-1.75 0-.853.23-1.53.692-2.034.466-.507 1.01-.76 1.632-.76.52 0 .97.213 1.352.64.385.423.592 1.052.621 1.887zm2.293-2.374v.662c.263-.285.516-.49.757-.618a1.62 1.62 0 0 1 .781-.197c.333 0 .61.093.83.278.22.183.366.41.44.684.058.208.087.607.087 1.198v1.99c0 .394.035.64.104.74.074.094.224.154.451.18v.196h-2.599v-.197c.194-.025.333-.105.417-.24.06-.091.088-.317.088-.678v-2.275c0-.42-.016-.684-.05-.793a.46.46 0 0 0-.17-.252.406.406 0 0 0-.257-.093c-.316 0-.609.224-.88.673v2.74c0 .383.035.625.105.727.073.102.207.166.4.191v.197h-2.598v-.197c.216-.021.37-.09.46-.207.063-.08.094-.317.095-.711V48.9c0-.386-.037-.627-.11-.721-.07-.095-.218-.157-.445-.187v-.202h2.094m5.636-1.87v1.871h1.22v.542h-1.22v3.155c0 .295.012.487.038.574a.45.45 0 0 0 .148.208c.07.051.134.076.192.076.238 0 .464-.18.676-.54l.165.12c-.296.7-.778 1.05-1.445 1.05a1.3 1.3 0 0 1-.83-.269c-.223-.182-.366-.384-.428-.607-.037-.124-.055-.459-.055-1.006v-2.761h-.67v-.192a6.997 6.997 0 0 0 1.175-1.023 6.14 6.14 0 0 0 .852-1.198h.182M45.587 22.246a.27.27 0 1 0 0-.538.27.27 0 0 0 0 .538m9.245-5.878h2.95v-5.173h-2.95v5.173zm2.95 2.457c-.051.56-.242 1.023-.63 1.286l-2.32 1.379v-4.858h2.95v2.193zm-5.937-2.457h2.723v-5.173h-2.723v5.173zm2.723 5.28l-1.071.636h-.018a.457.457 0 0 1-.569-.004l-1.065-.633v-5.015h2.723v5.015zm-3.825-5.28h.838v-1.894h-.838v1.894zm.838 5.122l-2.32-1.38c-.388-.262-.578-.726-.629-1.285v-2.193h2.95v4.858zm-2.949-8.3h1.019v-1.995h-1.019v1.996zm1.273-1.246l.119-.124-.074-.136.157.016.094-.164.092.162.159-.014-.074.136.12.124-.153.029v.168l-.144-.107-.144.107v-.168l-.152-.029zm.72 2.085c-.007-.05-.073-.064-.102-.064-.09 0-.127.15-.203.153-.056.003-.096.009-.096-.06 0-.05.115-.089.16-.133-.629 0-.64.286-.739.286-.165 0 .138-.3.225-.389-.127-.02-.2-.177-.34-.255.065-.093.103-.053.185.013 0-.066.049-.143.195-.143.281 0 .203.27.248.27.045 0-.003-.27.186-.27.278 0 .626.713.31.713-.135 0-.026-.102-.029-.12zm-.675 1.523l.157.016.094-.164.092.162.159-.014-.074.136.12.124-.153.029v.169l-.144-.108-.144.108v-.17l-.152-.028.119-.124-.074-.136zm-1.15-1.926l.157.016.094-.164.093.162.158-.014-.074.136.119.124-.152.03v.168l-.144-.107-.144.107v-.169l-.152-.03.12-.123-.074-.136zm-.168 2.742h1.019v-1.894h-1.019v1.894zm2.34-2.482l.12-.124-.075-.136.157.016.094-.164.092.162.16-.014-.075.136.12.124-.152.03v.168l-.145-.107-.144.107v-.169l-.152-.03zm-.23-.695h.84v-1.996h-.84v1.996zm7.312-2.256v-.004H48.36v.004h-.002l.008 7.792c0 .752.32 1.41.761 1.612l3.73 2.216a.452.452 0 0 0 .643.035l3.786-2.251c.442-.203.762-.86.762-1.612l.007-7.792h-.001z"/><path d="M51.424 18.418c-.014-.031-.37.117-.268.107.01-.104.207-.317.296-.395-.017-.124-.175-.012-.341.074.552-.787.197-.464-.11-.408.492-.528.362-.52 0-.355.284-.226.345-.494.302-.572-.268.356-.515.3-.515.63 0 .216-.079.572-.19.693-.144.155-.034-.582-.412-.582-.121 0-.407-.01-.493.138.077 0 .192.195.192.273 0 .078.072.292-.058.292-.128 0-.279-.27-.279-.4s-.009-.1-.009-.286c0-.311-.51-.75-.717-.75 0 .217.285.27.285.546-.12 0-.293-.225-.293-.086s.181.164.181.286c0 .121-.207-.043-.207.086 0 .115.113.095.14.208-.084-.024-.159-.014-.174.03-.014.037.024.085.088.12-.03.027-.054.092-.054.275 0 .615.387.901.672.901.202 0 .171-.141.196-.209.009.105.108-.051.108.131 0 .19-.197.107-.197.272 0 .22.31-.008.31.235 0 .295-.036.289-.036.401 0 .078.325-.107.305-.14.078.027.075.256.22.25.093-.003.113-.234.187-.254-.043.012.295.22.295.114 0-.286-.119-.164-.119-.362 0-.182.4-.146.336-.24-.052-.076-.089-.03-.131-.165.007.025-.314-.456.067-.208.4.26.445-.605.423-.65m10.343 2.038c.177 0 .319-.125.319-.28 0-.155-.142-.28-.319-.28-.176 0-.319.125-.319.28 0 .155.143.28.32.28m-1.29.762c.176 0 .318-.125.318-.28 0-.154-.142-.28-.318-.28-.176 0-.32.126-.32.28 0 .155.144.28.32.28m-15.324 1.759c.175 0 .318-.126.318-.28 0-.154-.143-.28-.318-.28-.176 0-.32.126-.32.28 0 .154.144.28.32.28m.993.084c.176 0 .32-.124.32-.28 0-.154-.144-.279-.32-.279-.176 0-.319.125-.319.28 0 .155.143.28.32.28M73.735 9.755c.473.56.575 1.457.237 2.101-.186-.017-.153-.253-.186-.39-.339-.627-.61-1.423-.305-2.135.22.034.135.305.254.424m-40.481.762c-.101.407-.101.966 0 1.34-.084.085-.067-.086-.152-.069-.66-.474-.355-1.406-.524-2.067a.13.13 0 0 1 .169-.034c.304.204.44.491.507.83m41.935.051c.101.187-.084.373-.22.458-.153.034-.321-.051-.423-.187-.051-.186.05-.356.203-.44.17-.017.338.017.44.17m-42.967.745c-.033.153-.084.306-.219.373-.101 0-.254 0-.321-.084-.102-.086-.12-.238-.068-.357.068-.118.203-.136.321-.152.119.05.237.085.287.22m43.626.289a.38.38 0 0 1 0 .27c-.118.153-.287.22-.456.153-.118-.068-.152-.187-.186-.288.034-.135.17-.255.287-.306.152 0 .254.085.355.17m-.964.018c.136.067.034.236.018.338-.086.085-.204.22-.356.169-.085-.084-.186-.084-.22-.203 0-.17.068-.339.238-.39.134-.033.22.034.32.086m-1.234.253c0 .187.017.424-.203.458-.203.068-.338-.102-.389-.238a.402.402 0 0 1 .254-.406c.135 0 .254.084.338.186m-39.585.085c.051.169-.117.27-.219.356-.118.034-.27-.068-.338-.187-.119-.118.033-.22.067-.322.17-.152.423-.034.49.153m-1.014.052c0 .134-.067.27-.185.321-.136.05-.271-.051-.34-.153-.084-.169.018-.322.153-.39.187-.067.305.102.372.221m36.508.067c.168.357.303.78.338 1.221-.069.322.05.746-.187.966-.237-.085-.253-.373-.406-.525-.304-.593-.033-1.289.068-1.865.136-.05.136.12.187.203m-37.303.204c.05.204-.101.305-.22.424-.202.05-.338-.102-.422-.238a.423.423 0 0 1 .22-.406.434.434 0 0 1 .422.22m39.974.491c.22.492.236 1.085.084 1.628l-.102.084c-.236-.457-.574-.88-.693-1.373 0-.355.068-.677.204-.966.118-.084.185.017.236.119.017.186.102.407.27.508m2.131-.305c-.016.17-.084.357-.254.407-.169.035-.338-.017-.389-.203-.05-.17.051-.322.186-.407.187-.102.373.068.457.203m-41.292.526a.363.363 0 0 1-.254.322c-.135.101-.236-.068-.355-.118-.05-.137-.084-.255 0-.39.051-.102.17-.102.271-.136.152.085.304.153.338.322m.744-.084c.068.169-.118.254-.186.338-.203.068-.305-.084-.389-.203-.034-.17.068-.272.186-.373.203-.05.305.085.389.238m41.022-.052c-.018.22-.356.441-.39.661-.185.458-.59.797-1.047.95-.102.084-.237.203-.39.22-.033-.34.27-.644.458-.949a2.504 2.504 0 0 1 1.369-.882m-42.104.713c.254.287.389.542.693.795.017.069-.034.17-.118.17-.829-.05-1.387-.898-1.793-1.491.05-.187.27-.034.39-.051.287.22.608.288.828.577m42.34.236c-.034.73-.388 1.475-1.048 1.83-.186.069-.39.255-.575.137.355-.73.897-1.322 1.489-1.967h.135m-3.247.492c.05.254-.085.406-.287.492-.186.016-.305-.137-.39-.272a.354.354 0 0 1 .238-.373c.05-.05.134-.05.202-.05.102.034.152.118.237.203M31.8 14.45c.321.22.608.525.913.796-.22.153-.49.017-.744.017-.575-.203-.964-.695-1.556-.864.017-.187.237-.119.356-.17.372-.034.676.135 1.03.22"/><path d="M49.91 9.433c-.947-.373-1.573.61-2.537.491-.118.068-.085.187-.152.271-.05.05-.135.017-.186-.017-.05-.407-.186-.78-.237-1.17-.101-.168-.05-.406-.135-.575-.54-1.475 1.319-.356 1.69-1.22.323-.746-.625-.831-.912-1.356v-.22c-.27-.272-.558-.356-.728-.713.119-.423.17-.881.051-1.305-.017-.102-.084-.237-.236-.186-.321.44-.558.797-.863 1.22-.321-.237-.626-.542-.997-.746-.254-.034-.49-.288-.778-.186-.05.102 0 .186.05.254.017.661.355 1.187.83 1.661l.05.255c-.304.695-.22 1.49-.304 2.237-.762 1.932-1.996 3.796-3.67 5.135-.963 1.085-2.114 2.136-2.266 3.627-.05.238.035.526-.152.695-.558-.203-1.116-.474-1.572-.83-.778-.543-1.894-.476-2.402-1.458-.202-.39.052-.78.237-1.068.575-.542.49-1.509.186-2.169-.067-.017-.084.067-.135.084-.051 1-.846 1.695-.541 2.797.068.322.237.526.322.83-.12-.033-.288-.033-.39-.084-.372-.051-.744-.203-1.133-.153-.778.356-1.843-.084-2.468.628-.102.016-.237.033-.203.185.372 0 .727.103 1.1.086.59.101.98-.39 1.385-.61h.102c.169-.17.457-.068.676-.102 1.066.119 1.894.626 2.774 1.152v.068c-.339.153-.728.254-1.066.44-.389.29-.829.661-.947 1.137-.27.423.085.796.254 1.152.016.17.033.372.186.44.54-.576.033-1.288.118-1.949.136-.509.61-.745 1.1-.88.963-.408 1.657.371 2.434.813-.017.78.085 1.525-.084 2.287a2.122 2.122 0 0 1-.795.12c-1.336.101-2.384.83-3.585 1.236-.54.187-1.184.17-1.725.373.423.119.863-.034 1.303-.05 1.656-.238 2.925-1.509 4.717-1.289l.033.051c-.202.424-.473.78-.794 1.102-.05-.187-.068-.339-.237-.44-.135-.069-.288 0-.388.135-.051.084-.051.186 0 .254.084.152.22.186.372.237-.034.153-.22.22-.321.356-.474.797-1.438.474-1.996 1.034-.085.119-.39.187-.254.373a2.55 2.55 0 0 0 1.742-.44c.626-.696 1.285-1.357 1.91-2.018a2.011 2.011 0 0 1-.371 1.542c-.152-.084-.271-.203-.457-.254-.169.034-.287.204-.304.34.067.118.135.254.253.339-.574.406-1.301.44-1.961.627a33.448 33.448 0 0 1-3.686.27c-.592-.033-1.269.17-1.826 0-.643.12-1.336-.084-1.86.272-.068.084.016.17.016.254.778.509 1.844.101 2.723.255h6.662c.49-.017.98-.035 1.37-.255.862-.491 1.336-1.373 1.775-2.237.17-.305.288-.661.356-1.017a1.468 1.468 0 0 1 1.267-1.034c.085.882-.084 1.763-.287 2.576-.102.543-.457 1.068-.237 1.645.05.27.339.27.558.305 2.046-.034 4.092-.12 6.256.034.39.067.728.186 1.15.169.035-.052.153-.068.102-.17-.05-.187-.186-.424-.406-.475-.034-.101-.186-.067-.236-.135-1.082-.61-2.385-.288-3.653-.271-.66.068-1.319.186-1.877-.186-.254-.306-.068-1.272-.068-1.272 0-.382.93-3.05 1.049-3.27.033-.255.135-.492.101-.78.136-.34.102-.78.102-1.153.067-.543.338-1.05.524-1.576.101-.254.186-.525.287-.78.102-.321.136-.627.339-.881.551.348 1.09.338 1.356.96l.233 1.413c0 .085.068.254.186.152.44-.288.304-.932.304-1.372.102-.526-.27-.78-.422-1.238-.119-.084-.313-.489-.313-.489-.068-.373-.888-.63-.702-1.087.101-.39.203-.746.575-.966.055.038.079.079.085.12l.202-.141.022-1.418c.547-.002 1.365.068 1.923.068.152.051.27.17.44.187l.135-.187 1.37-.265c-.582.064-.935-.601-1.489-.601"/><path d="M36.67 14.755c.017.203-.102.321-.254.39-.135-.051-.236-.069-.32-.204-.069-.186.1-.322.235-.39.136.034.305.051.339.204m-1.1 0a.37.37 0 0 1 .068.39c-.118.101-.304.186-.406.05-.101-.101-.203-.22-.118-.356.118-.119.321-.22.457-.084m36.421.474c.069.187-.084.322-.218.39-.17-.05-.39-.085-.39-.305.017-.136.135-.22.254-.254.152-.051.287.068.354.169m.898-.033c.05.084.168.22.033.305-.068.05-.119.067-.17.135-.185.034-.354-.034-.405-.203-.034-.187.118-.272.254-.357.117-.034.202.052.287.12m-41.563.203c-.067.203-.236.288-.456.22a.703.703 0 0 1-.135-.22c.017-.12.05-.238.186-.289.202.018.355.102.405.289m5.699.288c-.017.135-.17.254-.287.321-.17.018-.288-.118-.372-.236 0-.136.067-.305.202-.34.186-.067.39.069.457.255m-.998-.119c.05.051.101.187.05.272-.1.084-.253.237-.421.135-.103-.085-.22-.153-.187-.322.068-.068.152-.17.254-.203.135-.034.203.05.304.118m39.449.204c0 .135-.135.27-.22.322a.332.332 0 0 1-.372-.086c-.1-.033-.068-.168-.068-.253a.59.59 0 0 1 .322-.22c.152.033.254.135.338.237m1.082.152c-.05.153-.169.288-.321.305-.102-.017-.287-.05-.253-.203 0-.119.067-.237.151-.271.17-.085.373 0 .423.169m-43.304.238c.034.203-.034.338-.203.406-.118.068-.237-.017-.32-.084-.086-.086-.153-.221-.086-.34.034-.152.186-.118.288-.186.152.017.237.085.321.204m.829.152c.05.136-.102.186-.135.288-.085.05-.204.101-.305.034-.118-.102-.254-.255-.135-.407.135-.254.49-.118.575.085m40.395-.084c.017.168-.134.287-.236.39a.291.291 0 0 1-.339-.204c-.016-.137.069-.238.187-.322.152-.017.304 0 .388.135m1.387.271c-.034.153-.017.322-.186.424-.136.034-.304.017-.405-.068-.102-.085-.12-.237-.068-.356.084-.135.237-.237.406-.203.118.068.152.153.253.203m-43.253.356c.067.135-.085.17-.136.238-.118.067-.237.017-.338-.034-.119-.069-.067-.238-.05-.322.151-.288.456-.085.524.118m42.188.322c.068.017.034.12.016.153-.405.203-1.014.254-1.369-.068-.203-.17-.456-.237-.676-.373.084-.22.389-.203.608-.254.49.067.88.525 1.42.542m-41.376-.152c.034.135-.068.186-.102.288-.067.102-.202.068-.287.034-.152-.102-.22-.288-.118-.424.186-.186.405-.085.507.102m1.488.102c.067.152-.034.288-.169.372-.119.068-.22-.034-.321-.05-.085-.12-.237-.255-.085-.39.153-.254.457-.12.575.068m19.549.716c-.032.339-.593-.048-.514.403.08.323.145.708.338.95.16.225.08.58.065.853-.145.242-.386.419-.643.548-.482-.049-1.189.24-1.414-.355-.096-.257-.274-.515-.274-.805.05-.032.114-.032.161-.08 0-.113-.128-.178-.112-.29.546-.097-.225-.58.241-.612.385.402 1.012.274 1.35.708.08.065.144.162.24.21-.064-.403-.256-.804-.321-1.24a.56.56 0 0 1 .193-.564c.29-.224.53.097.69.274m-18.06-.106c.05.169-.085.27-.187.356-.152.067-.236-.102-.304-.187-.051-.169.068-.255.169-.34.118 0 .253.052.321.171m10.433.169c.203.662.135 1.339-.203 1.898-.017.136.034.356-.152.34-.456-.628-.118-1.51.068-2.17.033-.17.237-.237.287-.068m14.475.322c.236.475.253 1.102.033 1.576l-.135.136c-.186-.39-.338-.78-.389-1.203.084-.306.186-.577.203-.899.237-.05.22.255.288.39m-23.589.186c-.101.204-.389.255-.575.39-.405.305-.997.373-1.505.288.44-.61 1.116-.966 1.928-.796.034.067.118.034.152.118m-6.949.611c.625.44.794 1.05 1.166 1.66.05.068.22.085.153.22-.136.103-.271-.1-.457-.067-.643-.288-1.049-1-1.032-1.746 0-.067.102-.067.17-.067m29.878.524c.017.17-.017.34-.152.39a.309.309 0 0 1-.389-.203c-.05-.118.05-.186.084-.27.136-.136.372-.069.457.084"/><path d="M67.783 20.449c0-.322.085-.627.118-.932a.616.616 0 0 0 .067-.356c.407-.542 1.235-.373 1.877-.322.254.136.575.119.846.187.118-.085.287-.102.423-.085.54-.289.186-.915.22-1.407l-.203-.508a1.975 1.975 0 0 1-.136-.34c-.1-.118-.168-.339-.27-.457-.287-.745-.846-1.17-1.32-1.762-.862-1.12-2.214-1.747-3.567-2.187-1.336-.458-2.689.136-3.89.56-.37-.102-.557-.39-.659-.713a3.359 3.359 0 0 1 .322-1.796c.05-.424.338-.746.456-1.136.305-.949.626-1.881.693-2.915.035-.627-.44-1.068-.913-1.338-.32-.085-.692-.069-.929.186-.22.457-.694.763-1.099.983-.034.288.32.102.439.203.372.068.795-.05 1.1.186.033.679-.356 1.238-.71 1.746-.576.848-1.185 1.712-1.54 2.644l-.067-.068.082 4.144c.539.892 1.212 1.91 2.217 2.246.541.44 1.217.966 1.945.576.389-.118.422.424.608.644.203.628-.253 1.068-.287 1.644l-.44.933c-.507.983-.963 2.034-1.741 2.864-.254 0-.406.27-.66.288-.135.187-.406.05-.575.119-.524.22-1.268.085-1.623.576.034.05.084.068.136.085 1.03.016 2.18.084 3.28.034.135-.051.254-.17.27-.323-.152-.287.051-.542.186-.762.085-.407.356-.661.474-1.05.355-.696.761-1.373 1.15-2.069l.523-.847c.12-.288.322-.644.525-.949.135-.136.203-.288.304-.457.017-.17-.067-.238-.17-.357.12-.119.306-.084.458-.119.423.255.863.662.946 1.12l.153.44.068.203-.035.56.069.525c.084.813-.069 1.644-.153 2.458-.288.983-1.42.88-2.232 1.101-.203.135-.591.068-.591.407.98.204 2.13.085 3.178.068.169-.068.203-.22.287-.373.034-.22.254-.407.187-.644-.187-.237-.017-.61-.068-.933a.515.515 0 0 0 0-.321c.135-.492.102-1.085.202-1.56l.069-.644m8.319-.66c-.541.762-1.116 1.626-2.063 1.897-.067 0-.136.034-.17-.05.575-.61.88-1.56 1.776-1.78.136-.067.322-.136.457-.067m-46.162.83c-.084.067-.017.22-.17.237-.134.068-.286-.017-.354-.153-.068-.17.084-.339.22-.372.135.067.27.118.304.288m4.87.237c.05.153-.119.153-.203.186-.71.255-1.437.017-1.945-.49 0-.07 0-.137.068-.154.693.17 1.505.034 2.08.458m-3.94-.22c.034.067.05.186.034.254-.102.152-.254.186-.423.152-.102-.05-.152-.118-.22-.22.017-.169.152-.27.287-.322.136.017.237.051.322.136m45.874.152c.05.17-.1.254-.22.356-.1.05-.22 0-.321-.05-.017-.085-.118-.153-.084-.272.067-.152.22-.22.389-.203.084.067.152.084.236.17m1.116-.069c.102.153.017.272-.067.39a.233.233 0 0 1-.305.102c-.101-.102-.237-.153-.254-.305 0-.136.153-.237.254-.288.17-.068.237.102.373.102m-48.631.491c.017.118-.085.187-.118.288-.085.034-.17.102-.271.068a.496.496 0 0 1-.254-.271.441.441 0 0 1 .304-.339c.136.034.288.101.338.254"/><path d="M64.84 21.212c.034.068.017.152.017.22-.1.136-.237.254-.405.17-.102-.102-.22-.203-.17-.356.136-.187.424-.254.558-.034m-32.888.255c-.034.118-.084.236-.237.253-.152.017-.203-.118-.287-.186 0-.153-.017-.305.135-.39.203-.068.39.102.39.323m-1.623.033c.05.17-.069.288-.17.373-.203.068-.373-.085-.457-.237.017-.153.136-.34.304-.39.153 0 .237.17.322.254m35.627-.033c.034.169-.017.338-.186.406-.203.068-.372-.102-.456-.237.084-.136.1-.322.304-.356.152 0 .254.067.338.187m-34.833.067c.051.118-.05.17-.084.254-.084 0-.135.102-.237.068-.067-.085-.203-.119-.22-.237-.016-.17.102-.255.22-.322.17-.017.271.102.321.237m44.691.136c-.05.135-.151.203-.287.271-.135.033-.22-.085-.321-.136-.086-.068-.052-.22-.017-.305.169-.288.625-.153.625.17m1.286.067c-.051.187-.237.271-.406.288-.152-.067-.321-.185-.203-.39.067-.067.101-.135.203-.152.202-.068.355.085.406.254m-8.033.119c.085.22-.117.288-.253.39a.786.786 0 0 1-.322-.136.39.39 0 0 1 .238-.44c.152 0 .236.067.337.186m-4.649.204c.084.033.05.152.034.203-.102.068-.237.237-.39.135-.118-.067-.203-.169-.169-.322.086-.186.44-.203.525-.017m-27.748.136c.1.101-.018.22-.034.322-.085.102-.27.186-.423.085-.169-.068-.152-.289-.118-.424.101-.034.101-.153.236-.153.153.017.237.085.339.17m34.207.068c.034.17-.136.237-.254.27-.203.069-.304-.084-.388-.22 0-.1.1-.169.135-.254.237-.101.389.068.507.204m-.913 0c.067.17-.119.254-.186.339a.34.34 0 0 1-.373-.068c-.084-.05-.084-.152-.084-.254.101-.085.152-.187.271-.22a.44.44 0 0 1 .372.203m7.626.203c.033.237-.27.119-.389.187-.71.423-1.623.101-2.3-.153.051-.22.305-.136.44-.22.727-.458 1.471.102 2.197.135l.052.051m-46.28-.203l-.068.119c-.626.372-1.438.626-2.181.39l-.068-.102c.626-.458 1.454-.577 2.266-.458l.05.051m41.293.119a.383.383 0 0 1-.17.321c-.168.051-.389 0-.44-.186-.05-.135.086-.271.22-.322.12 0 .322.017.39.187m-38.266.068c-.067.135-.033.27-.203.338-.169.068-.372-.085-.422-.22-.05-.186.084-.237.169-.322.203-.102.355.05.456.203m-1.2.085c.05.119-.051.186-.085.271-.085.102-.237.085-.338.051-.118-.102-.237-.22-.186-.407.102-.085.152-.136.27-.186.153.033.305.101.339.27m40.65.391a.364.364 0 0 1-.27.305c-.137.017-.255-.085-.322-.17a.264.264 0 0 1 .067-.322c.034-.05.153-.05.22-.084.152.017.27.135.305.27m-41.902-.186c.051.136-.067.187-.084.289-.05.288-.237.474-.372.728-.322.39-.778.39-1.234.509l-.068-.136c.49-.627 1.015-1.119 1.708-1.424l.05.034m41.056.373c.034.204-.136.238-.253.322a.386.386 0 0 1-.34-.203c-.05-.186.12-.255.22-.339.17-.034.322.084.373.22m-39.111 0c-.017.034.017.068.05.085-.016.187-.151.237-.253.322a.458.458 0 0 1-.372-.17c-.067-.152 0-.339.17-.39.151-.017.354 0 .405.153m42.222.509c.17-.017.202-.22.39-.255.168-.033.32.068.405.187.068.203-.085.305-.22.39-.118.084-.373-.102-.355.118.118.085.22.204.237.34-.034.067-.153.05-.203.016-.491-.203-1.015-.542-1.218-1.05-.067-.153-.389-.272-.203-.408.491-.033.897.357 1.167.662m1.623-.526c.085.085.051.238-.017.322-.085.17-.338.102-.49.085-.084-.085-.169-.17-.135-.305a.539.539 0 0 1 .253-.22c.153-.035.27.033.39.118m-6.138.916c.152.186.304.474.371.678-.034.05-.118.034-.151.034-.576-.323-1.319-.679-1.54-1.357-.05-.067-.186-.152-.169-.27.44-.086.863.237 1.168.474.118.17.253.254.321.44m-38.655-.644c.068.153-.068.272-.152.34-.186.033-.288-.034-.39-.136-.118-.186.102-.339.238-.407.135-.017.22.118.304.203m44.978.628c.051.203-.1.339-.237.423-.169.051-.304-.067-.405-.152-.084-.102-.017-.204 0-.322.118-.102.27-.187.44-.119.067.051.135.085.203.17M66.16 26.33c0 .203-.373.153-.526.306-.523.27-1.15.27-1.775.254v-.102c.61-.509 1.489-.695 2.3-.457m-24.669.728c-.018.153-.103.238-.255.289a.328.328 0 0 1-.287-.17c-.068-.203.101-.288.22-.373a.394.394 0 0 1 .321.254m24.383.187c-.034.152-.085.322-.254.39-.152.033-.254-.051-.372-.12-.084-.067-.034-.185-.05-.27a.364.364 0 0 1 .676 0m3.366.068c-.424.27-.897.593-1.455.593l-.913-.017-.085-.068c.557-.678 1.572-.678 2.453-.61v.102m-32.382.406c0 .153-.068.272-.22.322-.169.034-.288-.034-.355-.152-.068-.153 0-.305.135-.39.186-.119.372.085.44.22m-5.631 1.882c-.17.203-.44-.051-.626-.153-.592-.34-.575-1-1.166-1.39.067-.203.22.017.338-.017.1.069.236.136.355.186.575.323.71.865 1.1 1.374"/><path d="M53.63 29.28c-.068.203-.203.372-.186.593l-.068.034c.05-.255-.203-.407-.135-.678-.136-.204-.136-.458-.254-.678-.152-.272.135-.39.254-.576.237.101.32.321.49.525.102.288-.118.508-.102.78zm26.885-6.254c-.27-.492-.727-.695-1.268-.695-.44.033-.761.322-.947.695a.854.854 0 0 0 .322.932c.118.05.27.034.338-.085.084-.22-.153-.22-.187-.39-.067-.237.018-.44.187-.593.169-.17.456-.085.66-.085.202.135.404.255.506.492.102.288.102.61 0 .898a1.512 1.512 0 0 1-1.048.848c-1.404.203-16.808.135-16.808.135-1.809.17-3.871-.339-5.428.61-.71.339-1.065 1.119-1.25 1.814-.458.406-.948.881-1.32 1.339l-.05-.05c.083-.408.27-.764.355-1.171.253-.339.253-.796.44-1.17.642-1.033 1.25-2.084 2.248-2.813.423-.56 1.167-.458 1.81-.458.692.323 1.504.424 2.35.34a.156.156 0 0 0 .05-.119c-.236-.22-.625-.305-.896-.526-.676-.321-1.319.102-2.03.052-.032-.035-.066-.052-.05-.102.643-.475 1.37-.814 2.098-1.119.59-.322 1.217-.491 1.842-.729.254 0 .49-.22.727-.067l.897-.238c.033.017.067.068.134.051.761-.254 1.726-.017 2.588-.034l.119.102.81.203c.305.034.44.39.761.407.17-.237-.185-.339-.27-.491.373-.085.795.016 1.133.17l-.168.185c-.103.187.05.322.202.39.118.034.203-.05.288-.085.22-.152-.018-.305.05-.44 1.251.22 2.452.525 3.602 1.017.32.102.625.339.981.322-.356-.322-.846-.492-1.286-.678-.288-.17-.693-.187-.912-.423.05-.086.169-.052.219-.12.575-.067 1.065-.49 1.472-.949.033-.101.219-.067.202-.203-.152-.17-.406.051-.609.034-.71.135-1.015.966-1.725 1.118-.861-.203-1.742-.406-2.603-.626-.423-.068-.88-.102-1.268-.272l-.948-.085h-1.724c-.017-.033-.067-.05-.05-.1.608-.154 1.132-.51 1.741-.662l4.532-2.068c.474-.423.896-.898 1.284-1.39a.32.32 0 0 0-.186-.322c-.118-.05-.253-.033-.337.068-.203.153 0 .34 0 .526-.203.27-.526.508-.778.66-.068-.016-4.668 2.085-4.668 2.085-.676.288-1.353.61-2.063.763l-.98.152c-.068.204-.237.322-.424.39-.269.05-.489.22-.776.22-2.2.848-4.481 1.746-6.223 3.475a1.9 1.9 0 0 0 .169-.712c-.034-.254-.017-.542-.186-.746-.04-.093-.164-.366-.124-.464l-.248.16c-.152.373-.287 1.05-.135 1.44.05.305.304.661.068.932-.812.983-1.27 2.17-1.81 3.288-.203-.034-.304-.22-.39-.406.576-.73 1.033-1.543 1.202-2.475.119-.084.033-.306.152-.407-.033-.271.152-.542.017-.762.108-.37-.494-.712-.11-.949l-.319.152c-.726.949.379 2.373-.451 3.288v.067c-.236.306-.355.611-.676.814-.406-.17-.558-.627-.795-.966-.372-.356-.372-1.085-.152-1.576.152-.491-.101-.916-.152-1.356l-.169-.101c-.406.525-.558 1.356-.237 1.982.17.306.186.729.44.984.152.49.456.813.727 1.254.068.169-.102.203-.186.288-.186-.12-.153-.39-.321-.509-.559-1.186-1.285-2.135-2.164-3.101-.034-.153-.187-.288-.103-.458.322-.305.39-.898.22-1.288-.033-.085-.134-.186-.117-.271l-.254-.204c.034.594-.355 1.119-.186 1.746v.034a32.185 32.185 0 0 0-5.63-3.385l-.155.43c.495.124 1.81.921 1.81.921.593.22 1.134.577 1.692.898 2.3 1.272 3.821 3.373 4.852 5.713.017.186.187.39.069.575-.356-.542-.863-.847-1.286-1.288-.118-.796-.591-1.56-1.285-1.881-.254-.373-.794-.407-1.217-.525l-6.155-.034c-5.005-.069-9.57.152-14.542.067-.693-.067-1.539-.305-1.741-1.033-.136-.255-.136-.695 0-.933.185-.321.523-.424.861-.457.271.033.457.288.576.475 0 .22-.187.423-.272.61.018.067.085.203.204.152.22-.085.389-.322.44-.542.016-.119.067-.288-.051-.373-.101-.356-.474-.61-.795-.695-.423-.034-.862.085-1.15.39-.406.339-.389.95-.27 1.424.27.746 1.065 1.254 1.826 1.355l16.453.068c1.606.084 3.415-.186 5.039.136.592.186 1.217.626 1.37 1.288-.018.034-.069.017-.119.017-1.336-.864-3.094-1.186-4.803-.983-.676-.034-1.284.22-1.893.39-.321.068-.626-.086-.829-.271-.609-.543-1.674-.51-2.452-.306 0 .051-.016.102.018.119.828-.068 1.318.644 2.062.729.17.034.305-.153.456-.017-.777.373-1.521.813-2.35 1.05-.253-.05-.388-.287-.591-.423-.322-.356-.913-.203-1.353-.237-.152.034-.287-.068-.39 0 .136.27.44.423.728.559.423.186.913-.017 1.302.237-.102.12-.237.153-.355.237-.795.306-1.454 1.018-2.334.967-.929.1-1.876-.17-2.502-.814-.27-.661-.964-1.017-1.708-.983-.05.034-.118.034-.102.119.373.22.66.66 1.032.915.237.288.694 0 .913.322.322.22.728.407 1.1.474.27.119.575.17.879.238l-.119.068c-1.538.508-3.314.56-5.038.491-.508-.017-.998-.17-1.506-.153.084.102.254.187.406.238a1.03 1.03 0 0 1-.456.135c-.203.051-.44.068-.644.17-.27-.017-.506.085-.726.17-.288.304-.626.626-.963.78 0 .067-.018.168.067.168.321-.135.727-.034 1.048-.169.558-.05.88-.661 1.32-.915.472-.373 1.149-.288 1.724-.204.338.085-.034.221.067.441.136.119.254.254.44.203a.303.303 0 0 1 .119-.084c.1-.136.084-.289.016-.424.237-.153.559.017.812-.085.642-.017 1.285-.152 1.911-.17.101-.016.22-.118.321-.016-.05.135-.22.152-.152.339.034.152.203.22.338.254.17-.068.32-.187.254-.407-.034-.118-.169-.135-.254-.186.355-.17.76-.221 1.116-.39.254-.05.49-.136.71-.237.22-.017.406-.22.609-.136a3.498 3.498 0 0 1-.356.814c-.27.898-.473 2.084 0 2.948.052.017.069-.016.102-.033-.355-.898-.152-1.932.152-2.78.237-1.44 1.725-1.864 2.79-2.406l.051.067c-.287.746-.71 1.458-.642 2.356.034.153-.068.305 0 .407.287-.153.473-.492.625-.78.119-.762-.32-1.712.457-2.271 1.387-.542 2.688-1.254 4.295-1.27.05.05.169-.035.186.066-.338.374-.828.73-.981 1.187-.54.746-.524 2.017-.288 2.932.153.526-.304.814-.524 1.22-.104.145-.135.392-.232.558l.334.036c.287-.305.558-.678.575-1.12a.464.464 0 0 0 .321.34c.119-.186-.101-.322-.119-.508.272-.153.39.186.61.254.355.085.659.237 1.03.237l.12-.118c-.373-.576-1.117-.678-1.76-.712-.338-.56-.338-1.254-.303-1.932.067-.356.135-.729.337-1.051.085-.237.322-.458.474-.644a2.36 2.36 0 0 1 1.066-.576h.05c0 .033.017.05.017.05-.457.356-.507.848-.778 1.289-.287.423-.423 1-.152 1.474.102.22.05.56.287.712.22-.305.237-.695.355-1.034-.05-.56-.388-1.085-.067-1.627.169-.424.524-.593.913-.746.93-.085 1.742.39 2.553.746.17.119.457.22.49.458-.016.458-.27.915-.625 1.135-.457.27-1.116.305-1.54-.017-.253-.254-.354-.695-.27-1.034.187-.203.44-.373.745-.271.169.085.32.254.54.152.085-.05.119-.186.068-.27-.186-.102-.253-.356-.507-.39-.321-.051-.71-.034-.93.186-.355.305-.49.763-.389 1.187.119.542.524.932 1.048 1.084.778.187 1.59-.05 2.08-.712.203-.22.254-.457.372-.729.812.492 1.42 1.356 1.742 2.238 0 .288.085.593.017.847l.591.05c-.05-.135 0-.287.052-.406.22-1.118.913-2.05 1.74-2.78.289-.169.22.221.289.34.253.644.846 1.101 1.471 1.288.71.118 1.386-.05 1.826-.593.22-.407.49-1 .118-1.424a1.17 1.17 0 0 0-.93-.441c-.44 0-.71.305-.93.627 0 .136-.017.288.102.356.067 0 .203.017.253-.085.035-.254.254-.373.457-.508.186-.102.389 0 .541.102.186.152.22.406.237.661-.034.322-.254.661-.558.797-.49.254-1.2.135-1.624-.153-.202-.22-.321-.475-.473-.746-.034-.27-.136-.508 0-.78.744-.44 1.522-.762 2.418-.847.355.068.66.305.896.559.778.797-.17 1.933.372 2.814.203-.034.203-.305.288-.475.253-.61-.068-1.27-.22-1.864-.203-.373-.321-.695-.643-1 .085-.034.12-.034.203-.034.356.237.744.509 1.032.881a4.54 4.54 0 0 1 .66 2.78c-.136.508-.677.745-1.1.932-.17.136-.372.34-.456.542.203.12.49 0 .692-.085.322-.118.508-.525.728-.711.033.017.017.067.033.102.018.186-.084.44.086.491.084-.237.101-.576.152-.864.22.237.253.542.32.847.152.305.407.712.812.763.102-.153-.017-.306-.05-.44-.051-.425-.406-.645-.643-.95-.591-.814-.321-2.085-.778-3-.169-.491-.524-.847-.913-1.254l.068-.068c.828-.017 1.522.254 2.283.407.93.458 2.282.356 2.722 1.56.186.677.49 1.304.964 1.83l.05-.034a.69.69 0 0 0 0-.627c-.101-.848-.846-1.05-1.234-1.763l.05-.068c.406.119.83.22 1.235.39 1.353.373 2.299 1.695 2.469 3.068 0 1.084-.203 1.982-.626 2.897-.05.137-.288.289-.135.407.186-.135.22-.356.322-.508.557-.932.844-2.22.557-3.407-.017-.22-.27-.389-.152-.61.085.102.186.12.287.153.103-.068.255-.068.323-.187.016-.101.083-.22 0-.305-.103-.152-.323-.152-.491-.118-.085.101-.186.237-.204.373-.168-.289-.338-.661-.609-.898l.034-.052c.762.255 1.454.628 2.233.831.169.102.354.186.592.186.66.255 1.386.356 2.08.526.506-.051.93.186 1.437.068v-.034l-.017.017c-.187-.238-.592-.017-.812-.187-1.167-.119-2.283-.424-3.331-.83.016-.05.085-.034.135-.034.17-.085.288-.237.27-.424a.457.457 0 0 0-.389-.186c-.101.05-.236.169-.254.288.018.135.136.288.254.322-.033.034-.101.017-.15.017-.526-.238-1.033-.458-1.54-.695-.186-.034-.339-.187-.524-.22a17.328 17.328 0 0 0-1.167-.525c-1.082-.56-2.283-.865-3.432-1.272-.255-.068-.491-.136-.727-.203-.423-.119-.847-.22-1.269-.34-1.437-.355-3.365-.39-4.616.39-.203-.067-.322.255-.423.051.355-.932 1.387-1.237 2.316-1.27 6.78-.069 13.14-.12 19.819-.221.777 0 1.538-.271 1.944-.967.287-.406.338-1.1.118-1.558z"/><path d="M71.976 28.212c0 .05.102.067.067.152-.59.526-1.42.678-2.265.712-.068.017-.136.068-.22.05-.05-.033-.068-.084-.034-.118.61-.661 1.538-1 2.452-.796m-2.722.271c.067.237-.084.373-.271.458-.186-.017-.287-.136-.372-.272-.05-.135.068-.203.12-.288.134-.136.455-.136.523.102m-32.144.034c.033.119.016.271-.085.356-.068.085-.22.101-.305.085-.118-.017-.186-.153-.22-.255 0-.152.085-.237.22-.322.136 0 .288-.017.39.136m-3.027 1.101v.12a1.321 1.321 0 0 1-1.1-.255c-.236-.34-.507-.678-.895-.847 0-.051-.103-.12 0-.153.845 0 1.352.678 1.995 1.135M74.546 28.5c-.39.576-.727 1.288-1.42 1.542-.119 0-.22.17-.322.051.271-.644.846-1.339 1.506-1.61.067 0 .168-.017.236.017m-36.456.203c.017.187-.118.22-.237.322-.135.017-.203-.084-.287-.186-.068-.17.084-.237.17-.322.134-.034.287.068.354.186m38.587.102c-.153.22-.085.543-.237.78-.338.389-.626.83-1.166.915-.085-.17.118-.339.202-.492.237-.508.575-1.084 1.116-1.305l.085.102m-47.837.153c.051.118.102.237 0 .372a.399.399 0 0 1-.388.068.315.315 0 0 1-.135-.407c.102-.152.405-.237.524-.033m-.964.202c.017.086.067.154.05.238-.05.085-.134.187-.236.204-.186.033-.304-.068-.389-.22-.017-.153.034-.29.168-.357.153-.067.323.017.407.136m1.995.102c.034.135.068.372-.135.406-.237.102-.373-.067-.508-.203a.39.39 0 0 1 .204-.34c.168-.016.32 0 .439.137m2.773.22c-.016.119.017.288-.118.322-.085.085-.237.051-.321.034-.034-.102-.22-.187-.118-.305a.629.629 0 0 1 .236-.186c.101.05.254 0 .321.135m45.655.119c-.05.118-.118.271-.254.271-.152-.017-.303-.034-.389-.187-.067-.186.086-.288.22-.338.17 0 .389.067.423.254m-3.094.084c.017.136-.135.238-.203.288-.237.102-.44-.067-.525-.254a.439.439 0 0 1 .288-.305c.22-.017.339.102.44.27m-46.805.255c.034.187-.034.356-.202.424-.153 0-.322-.085-.373-.237-.017-.153.033-.305.17-.356.168-.05.304.051.405.17m45.959.186c.051.186-.05.356-.236.44-.136.034-.22-.033-.322-.118-.067-.085-.152-.27-.016-.356.135-.254.473-.153.574.034m-36.862.186c.068.187-.135.221-.186.322-.067.034-.203.05-.253-.017-.085-.101-.186-.203-.136-.356.085-.067.119-.135.22-.169.186-.05.254.119.355.22m40.497.119c.035.119-.067.17-.084.254a.457.457 0 0 1-.388.068c-.153-.085-.153-.22-.153-.373.102-.068.118-.152.237-.186.152 0 .338.067.388.237m-1.048.051c.068.203-.118.305-.253.356-.068.017-.17-.034-.186.068.44.22.71.576 1.048.898v.135c-.609-.017-1.235-.169-1.675-.643-.117-.085-.32-.085-.456-.204.22-.22.626-.136.93-.153.22-.237-.253-.406.034-.61.102-.017.17-.118.305-.084a.57.57 0 0 1 .253.237m-6.917.017c.035.084-.066.186-.082.27a.341.341 0 0 1-.373.069c-.085-.119-.22-.22-.17-.39.136-.254.575-.203.626.051m-37.809.593c-.05.153-.118.254-.287.271-.135-.017-.253-.067-.304-.203-.017-.119.067-.186.084-.271.187-.153.524-.051.507.203m1.37-.22c0 .237-.253.373-.338.61-.254.56-.71 1.068-1.352 1.119-.068-.153.22-.34.287-.492.27-.576.811-.882 1.302-1.237h.101m36.033.237c.017.187-.152.322-.287.39-.152.05-.27-.068-.355-.136-.136-.136-.05-.271.017-.407.203-.203.49-.034.625.153m1.05.118a.419.419 0 0 1-.305.373c-.034-.05-.119-.017-.17-.034-.118-.067-.22-.169-.22-.304.085-.085.12-.22.237-.238.153-.017.406 0 .458.203m-34.462-.016c.017.186-.118.288-.253.355-.153.017-.254-.084-.322-.203-.033-.152.119-.254.203-.339.203-.068.254.085.372.187m1.167.068a.402.402 0 0 1-.321.287c-.118-.033-.254-.067-.305-.203-.016-.17.119-.254.236-.339.17 0 .356.068.39.254m36.93 1.187c.084.067.236.152.202.272-.27.118-.49-.187-.744-.238-.405-.407-.71-.848-.879-1.356.152-.153.322.034.457.084.389.323.76.746.964 1.238m.626-1.186a.422.422 0 0 1-.034.372c-.102.17-.322.136-.474.102-.084-.102-.237-.237-.135-.39.05-.136.202-.17.321-.22.118-.017.202.084.322.135m-36.001.441c.018.136.051.34-.118.424-.152.034-.355-.017-.406-.204-.084-.203.102-.237.204-.339.134-.034.22.034.32.12m31.688 1.101c.237.339.406.762.44 1.203-.051.119.084.238-.017.322h-.068c-.76-.542-.93-1.305-1.217-2.068-.068-.033-.085-.101-.068-.169.169-.153.287.152.457.203l.473.509m-29.489-.576c-.017.016 0 .033.016.033-.675.475-1.623.763-2.4.305-.018-.05.017-.135.084-.152.49-.153.964-.39 1.488-.322l.812.136m-3.856.084c-.574.356-1.098 1.051-1.809 1.22-.135.051-.22.238-.389.136.305-.915 1.303-1.407 2.198-1.492v.136m32.347.763c.051.136 0 .322-.135.356-.085.084-.252.084-.32 0-.152-.068-.152-.22-.152-.339.05-.118.168-.135.253-.186.151.034.27.034.354.169m-1.402.084c-.102.238-.39.373-.61.441-.575.204-1.098-.068-1.606-.203.016-.136.186-.085.27-.17.558-.118 1.133-.237 1.725-.084.05-.034.17-.051.22.016m-30.944.493c-.05.067-.067.22-.203.27-.118.051-.236 0-.337-.067-.034-.102-.153-.187-.068-.306.034-.118.169-.152.27-.186.17.017.305.119.338.288m.998.153c-.05.101-.1.254-.236.322-.136.034-.237-.034-.34-.119-.05-.102-.1-.22-.05-.339.034-.085.153-.102.237-.153.17-.016.321.153.39.289m31.027.169c.017.136-.05.22-.118.323-.084.118-.253.134-.372.067-.118-.017-.152-.152-.203-.237-.102-.136.068-.22.12-.34.184-.152.489-.067.573.187m.744-.034c.017.085.069.17.034.238-.102.085-.17.304-.372.22-.1.033-.151-.101-.202-.135-.068-.17-.018-.424.202-.458.152-.051.254.085.338.135m-32.38.491a.459.459 0 0 1-.17.458c-.186.034-.423.034-.49-.186-.018-.17 0-.39.203-.491.17-.018.372.017.457.22m.962-.068c-.033.474-.134 1.051-.607 1.322-.271.05-.542.305-.812.136v-.085c.355-.508.997-.899 1.42-1.373m28.019.389c.067.102-.051.188-.102.272-.1.119-.287.068-.405.017-.12-.05-.136-.22-.085-.339.034-.101.135-.152.22-.186.153-.018.288.119.371.236m-26.327.78c.237.39.102.916.237 1.34-.287.034-.406-.288-.592-.458-.372-.508-.321-1.186-.49-1.78a.09.09 0 0 1 .118-.033c.254.168.44.49.643.71-.034.12.101.12.084.222m29.186.864c0 .051-.018.152-.103.118h-.067c-.49-.44-.98-.932-.913-1.61l.101-.017c.457.39.964.814.982 1.51m-1.268-.543c.016.135-.068.237-.153.322-.186.05-.473.034-.507-.22-.017-.17.168-.255.254-.34.202-.05.338.085.405.238m-1.116.356c-.237.627-.88.949-1.32 1.423-.083-.05-.05-.186-.033-.254.17-.644.677-1.271 1.302-1.525.27.034 0 .22.05.356M55.832 6.1h-.186c-.49 0-.074.592.189.592.327 0 .348-.592-.003-.592zm-1.514.592c.49 0 .026-.592-.237-.592h-.49c-.49 0-.027.592.237.592h.49zm-2.054 0c.49 0 .026-.592-.237-.592h-.49c-.49 0-.026.592.237.592h.49zm3.545-.725a.418.418 0 0 1 0 .838h-5.014a.419.419 0 0 1 0-.838h5.014zm.036 7.736c0 .22.297.073.517.073.22 0 .518.148.518-.073 0-.313-.297-.204-.518-.204-.22 0-.517-.11-.517.204zm.938.52c.216 0 .235-.295.235-.549 0-.579-.46 0-.696-.545-.172.46-.644.034-.644.528 0 .34-.003.566.337.566h.768zm-1.414-2.53l.96.365.941-.366-.373 1.403.746-.153-.254.85.254.817-.661-.179.288 1.513-.942-.364-.959.364.39-1.513-.764.213.205-.85-.205-.817.73.12-.356-1.404zm-2.242 2.064v-.178l-.16-.03.125-.131-.078-.143.165.017.099-.174.098.171.167-.014-.078.143.125.13-.16.03v.179l-.152-.113-.151.113m-.743.953v-.178l-.161-.03.126-.131-.078-.143.164.017.1-.174.097.172.167-.015-.078.143.126.13-.16.03v.178l-.152-.113-.151.113m1.261-.121v-.178l-.16-.03.126-.13-.078-.144.164.018.1-.174.097.171.167-.015-.077.143.125.131-.16.03v.178l-.152-.113-.152.113m.165.777v-.12l-.107-.02.083-.086-.051-.096.109.012.066-.116.064.115.111-.01-.052.095.083.086-.106.02v.12l-.1-.076-.1.076m-1.188.749v-.305l-.275-.052.216-.223-.134-.245.282.03.171-.299.167.294.286-.025-.134.245.215.223-.275.052v.305l-.259-.193-.26.193M53.22.127l.594 1.458 1.509-.443-.765 1.376 1.284.906-1.55.258.094 1.572L53.22 4.2l-1.168 1.054.095-1.572-1.55-.258 1.285-.906-.766-1.376 1.508.443.596-1.458m-5.457 32.685c-.179.067-.249.116-.205.301l.213.893c.04.165.052.426-.06.585-.131.192-.41.314-.612.363-.147.035-.467.094-.723-.014-.17-.072-.279-.149-.352-.451l-.222-.936c-.056-.235-.144-.22-.336-.192l-.017-.07 1.134-.27.017.07c-.22.06-.323.088-.265.335l.223.935c.038.16.13.546.613.43.59-.14.495-.57.452-.75l-.203-.853c-.04-.172-.103-.257-.395-.2l-.016-.07.738-.176.016.07m1.68.187c-.103-.183-.377-.462-.774-.373-.175.039-.342.164-.302.347.034.151.112.199.422.254l.54.096c.124.022.416.128.484.435.055.247-.086.635-.705.772-.32.072-.493.01-.597.033-.071.015-.076.07-.08.118l-.097.022-.154-.695.097-.022c.13.27.397.544.824.449.404-.09.359-.372.35-.409-.04-.188-.214-.22-.452-.258l-.245-.04c-.627-.103-.68-.345-.709-.475-.038-.17-.018-.576.621-.718.27-.06.45-.002.546-.024.078-.017.085-.063.09-.12l.101-.023.135.61-.095.02m2.232 1.112l-1.226.116-.007-.071c.25-.042.331-.055.308-.296l-.145-1.512c-.238.035-.59.083-.616.549l-.1.01-.044-.578 2.06-.198.062.577-.099.009c-.112-.452-.468-.433-.705-.421l.143 1.51c.024.244.107.243.362.232l.007.073m1.374-1.024c.451.005.632-.055.64-.429.005-.29-.134-.418-.41-.423-.19-.003-.197.028-.216.117l-.014.735zm1.494 1.023l-.707-.014-.696-.915-.093-.003-.01.566c-.006.23.07.24.298.27l-.003.072-1.164-.022v-.072c.236-.019.305-.026.31-.26l.024-1.273c.005-.247-.101-.255-.298-.271l.002-.072 1.11.022c.242.004.97.042.962.526-.007.354-.364.437-.551.482l.677.835c.047.052.099.056.14.057l-.001.072z"/><path d="M55.846 33.594l-.26-.738-.407.654.667.084zm.96.804l-1.11-.138.01-.072c.214.012.276.017.287-.077.01-.077-.073-.302-.11-.4l-.769-.096c-.121.194-.191.304-.197.35-.014.11.15.138.266.158l-.01.072-.694-.087.01-.071c.186 0 .247-.091.376-.293l.955-1.471.096.012.575 1.598c.116.325.159.43.324.444l-.01.071zm2.007.407l-1.961-.358.013-.071c.194.015.297.025.329-.148l.25-1.372c.033-.187-.105-.218-.255-.254l.012-.071 1.184.217-.013.07c-.239-.035-.345-.051-.39.198l-.243 1.338c-.025.136.045.173.272.214.513.093.746-.107.96-.399l.099.019-.257.617m1.301.29l-1.18-.247.015-.07c.184.024.319.04.355-.135l.283-1.364c.039-.187-.119-.225-.273-.266l.015-.07 1.182.246-.015.07c-.16-.026-.322-.057-.362.134l-.284 1.364c-.038.181.096.218.278.268l-.014.07m1.422-.479l-.276-.732-.394.663.67.07zm.977.785l-1.112-.115.006-.071c.215.008.278.01.287-.083.007-.078-.08-.301-.118-.398l-.773-.08c-.117.197-.185.308-.189.354-.01.11.153.135.269.152l-.007.072-.697-.072.008-.072c.187-.004.245-.096.37-.3l.923-1.492.097.01.61 1.586c.122.323.168.426.333.437l-.007.072zM53.092 12.29c-.203 0-.476.14-.476-.1 0-.34.23-.263.434-.263.202 0 .518-.076.518.263 0 .24-.273.1-.476.1zm.602-.132c0-.692-.39-.044-.605-.632-.158.497-.627.079-.627.613 0 .205.054.323.153.388v.205c0 .053.043.096.096.096h.737a.096.096 0 0 0 .096-.096v-.222a.449.449 0 0 0 .15-.352zm6.051 8.492c.176 0 .319-.125.319-.28 0-.154-.143-.28-.32-.28-.175 0-.317.126-.317.28 0 .155.142.28.318.28m-2.372-2.806c.032.048.113.064.214.029l.097-.274c.008-.019-.112-.127-.182-.11-.273.064-.562.097-.723.355 0 .177.128.338.257.418.096-.032.113.064.177.113.016.08-.033.145-.113.145-.193-.194-.529.064-.674-.178.064-.24.193-.515-.017-.74.017-.049.097-.097.049-.145-.08-.226-.322-.049-.466-.049-.24-.032-.433.097-.578.29.015.08.048.161.128.242.065-.016.096 0 .112.065l-.16.096c.048.048.048.113.065.177-.114.048-.226-.113-.275-.193 0-.129.017-.354-.16-.387a.694.694 0 0 0-.14.047.462.462 0 0 0-.065.267c0 .114.063.288.063.288s.496.365.608.59c-.145.29-.145.692-.482.853-.096.064-.096.161-.096.258l.08.064c.21-.112.61-.145.579-.499.08-.145.16-.306.304-.418a.334.334 0 0 1 .37.177.633.633 0 0 1-.433.482c-.032.033-.016.081-.016.13.064.112.24.064.337.048.273-.178.386-.5.627-.596.032.16-.322.21-.097.37.144-.032.337.016.434-.177-.113-.273.385-.402.08-.644 0-.241.256-.338.24-.596-.096-.257-.4-.257-.48-.498.095-.065.24-.05.336 0M45.64 20.773c.176 0 .319-.125.319-.28 0-.154-.143-.278-.319-.278-.177 0-.319.124-.319.279 0 .154.142.28.319.28m-16.56 9.627a.307.307 0 0 0 .313-.3c0-.165-.14-.3-.313-.3a.307.307 0 0 0-.314.3c0 .166.14.3.314.3"/><path d="M58.762 19.08c-.061.677-.293 1.242-.764 1.562l-4.443 2.81h-.024a.548.548 0 0 1-.69-.004l-4.435-2.806c-.47-.32-.703-.885-.765-1.563v-8.767h11.121v8.767zm.333-9.082V9.99H47.31v.007h-.002l.01 8.961c0 .915.389 1.714.926 1.96l4.532 2.864a.551.551 0 0 0 .782.042l4.602-2.906c.538-.246.927-1.045.927-1.96l.009-8.961h-.001zM44.777 34.755l-.427-.655-.242.733.669-.078zm1.122.555l-1.11.128-.008-.072c.211-.038.272-.048.261-.143-.009-.077-.143-.276-.202-.362l-.77.09c-.073.217-.114.34-.108.385.012.11.178.099.295.091l.008.072-.696.08-.008-.072c.183-.043.22-.146.298-.373l.579-1.655.096-.011.938 1.416c.19.288.255.38.42.355l.007.071z"/><path d="M64.975 31.754c-.151.305-.389.525-.727.576.017-.407.389-.695.254-1.152-.22-.322-.66-.424-1.065-.339-.152.101-.084.27-.135.424l-.068.559c-.338 0-.356-.305-.457-.543.018-.356.17-.711.525-.881.27-.136.71-.119.98.034.22.051.474.152.558.356.254.237.186.661.135.966zm-1.37.17c.187-.187-.05-1.255.474-.56 0 .136.017.34-.118.441-.085.067-.22.203-.355.118zm.187.423c.017.271-.237.204-.372.306h-.406c-.084-.136-.05-.34-.05-.475.27.05.574.05.828.17zm.473 2.068c-.135.17-.017.44-.186.593 0 .305-.254.458-.473.577-2.012.44-3.99-.238-5.935-.577-2.723-.593-5.901-.762-8.675-.136-1.302.238-2.57.543-3.82.9-.78.1-1.624.22-2.368-.018-.609-.288-.355-1.068-.542-1.61.034-.424-.118-.763-.134-1.17a1.003 1.003 0 0 1-.068-.44c.253.034.507.22.778.288 1.42.27 2.688-.187 4.007-.424 1.269-.271 2.57-.492 3.906-.593 1.522-.017 3.078-.102 4.532.152.473.017.879.136 1.335.17.948.119 1.827.373 2.79.44.153.051.339.051.508.086 1.521.237 3.23.66 4.684 0 0 .61-.254 1.169-.34 1.762zm-8.59 1.237c.085.238.237.458.152.746-.168.322-.507.322-.81.39a.53.53 0 0 1-.39-.119c.017-.067-.017-.119-.067-.17.05-.22-.39-.44-.085-.626.27-.254.913-.83 1.2-.22zm.372.068c.203.051.22.271.238.44-.018.373-.22.696-.575.831-.186.102-.474.136-.66.068.406-.017.846-.17 1.015-.576l-.018-.763zm.44 2.254c-.034.017-.034.051-.034.068-.49.017-.811-.27-1.183-.525l-.017-.085c.457.034.828.322 1.234.542zm-.624 1.56c-.018.05-.103.05-.136.016-.507-.644-.745-1.322-1.066-2.033l.068-.017c.405.66.727 1.39 1.134 2.034zm-.847-.407l-.085.034c-.083-.068-.05-.255-.033-.356.1.084.186.203.118.322zm-.473-1.017c.017.17.186.237.085.39-.035-.068-.136-.22-.085-.39zm-.101-1.068h.033v-.05h-.033v.05zm-.98 2.441c-.323.017-.813.203-1.117-.068.016-.136-.135-.203-.119-.339.27-.102.507.22.761-.017.389.017.795-.051 1.184.034.186.051.473-.305.506.051-.134.56-.81.169-1.216.339zm-.745-2.017l.084-.136c-.136.407-.339.83-.558 1.22-.102-.406.321-.728.474-1.084zm.473-.322c.22-.237.423.135.507.322.254.373.913.712.66 1.22-.322.288-.83.017-1.184.237-.186-.017-.508.034-.609-.152.186-.543.356-1.153.626-1.627zm-.05-.644h-.068l.101-.102c.05.034-.017.068-.034.102zm.388.033c.067-.101.152-.253.27-.253 0 .016.017.033.035.05-.102.085-.186.17-.305.203zm.237.255c.033-.034.118-.034.152 0h-.152zm.456.525c-.016.034.017.085-.034.12l-.389-.306c.187-.034.323.05.423.186zm-.05-.982h.016v-.051h-.016v.05zm.727-1.103c-.203.068-.355.306-.558.357.102-.187.355-.374.558-.357zm-.846-.22c-.034-.153.153-.033.22-.102l.525.034c-.272-.034-.61.594-.745.068zm-1.234.475c.084-.237.102-.44.254-.628.169 0 .321 0 .456.068.034.34.457.797 0 1.085-.152.068-.372.22-.54.068-.22-.186-.255-.356-.17-.593zm-.254 1.05c-.017-.067.034-.152.051-.237.084-.084.17.068.203.12a.252.252 0 0 1-.254.117zm-.033-.78h.016v-.185h-.016v.186zm-.186-.507c-.22-.052-.339-.306-.575-.306.203-.068.405-.05.642-.017.085.12-.05.22-.067.323zm-.187 1.372c.052-.22.153-.508.27-.711-.016.22-.117.525-.27.711zm-.371 0a4.077 4.077 0 0 1-.812-.203c-.17-.17 0-.356 0-.542.237-.373.913-.56 1.235-.22a1.797 1.797 0 0 1-.423.965zm.151.458v.068h-.034v-.085h.069c-.017 0-.051 0-.069.017h.034zm-.422.983a13.01 13.01 0 0 1-.829 1.593c-.033.085-.17.102-.27.119 0-.237.237-.424.338-.627.355-.458.457-.95.862-1.39.102.102-.101.17-.101.305zm-1.607-.17c.407-.17.829-.525 1.286-.372-.321.254-.846.356-1.286.373zm.609-1.17c-.084-.592.153-1.1.541-1.525.237-.05.508-.1.728.034-.44.119-.998.22-1.1.78.017.22-.05.34.051.525.186.323.61.187.845.441 0 .085-.067.187-.152.204-.287-.17-.642-.238-.913-.458zm-7.93-5.44c.05-.135 0-.339.186-.372.118-.034.304-.034.321.101a3.36 3.36 0 0 1-.084.593c-.237.017-.356-.118-.423-.322zm.05.57c.254.186.609.101.914.152.05.187.05.424-.085.577-.287-.068-.66-.034-.812-.305.035-.12-.05-.289-.017-.424zm-.794-.485c.05-.305.118-.627.405-.847.406-.221.965-.17 1.337.05.118.068.203.17.27.323.085.288-.05.593-.254.762h-.169c0-.27 0-.542.102-.762-.017-.204-.186-.221-.321-.306-.288-.084-.542.051-.761.17-.17.203-.321.458-.22.746.119.187.016.44.084.644l-.051.067c-.202-.22-.473-.457-.422-.847zm15.866 7.204c.404.182 1.217.36 1.803.425-.052.23-.465.014-.417.338-.524-.203-1.133-.305-1.522-.712.034-.017.068-.067.136-.05zm-10.557.271l-.236-.22c.118-.153.371-.069.557-.17.44-.136.948-.305 1.438-.203-.507.406-1.167.457-1.76.593zm18.262-7.73c-.203-.525-.625-.88-1.15-1.05-.54-.119-1.116-.034-1.47.373-.61.491-.187 1.305-.17 1.966 0 .135.017.237-.119.305-2.45-.22-4.734-.83-7.17-1.085-.558-.096-1.12-.07-1.652-.182l-.68-.072c-2.114.068-4.228.187-6.206.695-.422.135-.896.17-1.319.322-.304-.05-.558.17-.845.085l-.557.13a.46.46 0 0 1-.187-.012c-.27-.695.541-1.118.287-1.796-.22-.39-.66-.763-1.166-.695-.575-.068-1.082.254-1.353.695-.389.847.101 1.729.253 2.56-.034.27.271.575 0 .796-.54-.373-1.251-.577-1.91-.39-.203.102-.575-.034-.676.203.727.39 1.657.34 2.468.306.102-.034.169-.052.254.017.068.44-.085 1.033.186 1.423.304.407.812.509 1.302.56 1.556-.051 2.942-.51 4.362-.865.22-.017.39-.135.626-.135.76-.17 1.59-.305 2.401-.323-.355.458-.558.967-.71 1.526-.203.458.355.525.524.78-.524.152-.896.508-1.386.711-1.083-.034-1.996.373-3.01.492-.017.22.355.152.389.373-.051.152-.203.169-.322.254-.017.102 0 .119.102.136.101-.119.32-.034.423-.153.338 0 .625-.102.947-.119.287-.118.608-.135.862-.339.355-.101.575-.338.93-.44.507 0 .964-.17 1.437-.204v.102c-.39.627-.794 1.271-1.2 1.864-.068.12.016.237.118.271.237.068.473 0 .66-.101.354-.61.675-1.187.963-1.814.119-.576.542-.881.964-1.27.068-.035.17-.136.237-.035-.339.39-.558.763-.812 1.187-.136.474-.17 1.084.254 1.474.203.17.507.119.778.136.66-.339 1.505.203 2.012-.44.304-.052.354.304.524.474.288.085.592.372.88.17-.018-.187-.22-.357-.322-.526-.203-.356-.456-.644-.642-.966-.086-.237-.237-.39-.271-.627.305.101.574.305.913.356.287.118.643.101.914.27.22.289.557.458.845.645.422.203.896.237 1.335.407.17.016.423.152.541 0a.712.712 0 0 0-.253-.187c-.051-.22.304-.102.422-.27-.041-.084-.114-.118-.195-.13-.243-.128-.845-.173-1.005-.26-.203-.035-.389-.12-.591-.187-1.015 0-1.573-.916-2.385-1.254.186-.17.473-.306.592-.56.152-.237.203-.627.05-.898-.151-.525-.828-.458-1.216-.746l.05-.05c.659-.034 1.234.118 1.826.236 1.623.22 3.128.83 4.82.865.93 0 2.096.05 2.552-.847.085-.526.187-1.051.27-1.577.204-.847.762-1.627.677-2.56zM0 58.573h106.822v-.5H0zm24.672 6.379c0-.967-.427-1.45-1.282-1.45h-.2v2.919c.107.006.188.01.243.01.827 0 1.24-.494 1.24-1.48zm1.604-.026c0 .457-.142.843-.427 1.157-.262.292-.617.492-1.068.601-.323.08-.853.12-1.591.12v1.869c0 .278.006.452.02.522a.52.52 0 0 0 .28.393c.11.056.313.084.61.084v.189h-3.333v-.189c.465 0 .748-.104.848-.313.042-.092.063-.32.063-.685v-4.368c0-.278-.007-.45-.02-.516a.524.524 0 0 0-.276-.397c-.11-.057-.315-.085-.615-.085v-.189h2.864c.723 0 1.31.116 1.759.348.591.305.886.79.886 1.46zm3.136 3.89v-1.56c-.708.428-1.062.862-1.062 1.3a.58.58 0 0 0 .16.405c.08.09.194.134.34.134.161 0 .348-.093.562-.28zm1.967.408c-.307.468-.67.701-1.09.701-.517 0-.808-.248-.873-.745-.552.497-1.048.745-1.487.745a.873.873 0 0 1-.645-.258.89.89 0 0 1-.256-.655c0-.467.3-.905.904-1.315.226-.155.719-.412 1.48-.77v-.47c0-.277-.005-.445-.015-.506a.584.584 0 0 0-.6-.505.87.87 0 0 0-.52.145c-.083.06-.125.13-.125.21 0 .069.045.156.137.258.125.144.187.281.187.415a.538.538 0 0 1-.186.426.668.668 0 0 1-.453.162.753.753 0 0 1-.49-.17.57.57 0 0 1-.227-.462c0-.274.113-.525.339-.75a1.82 1.82 0 0 1 .707-.433c.33-.116.672-.174 1.028-.174.332 0 .63.07.896.209.307.159.51.385.61.68.046.136.068.455.068.958v1.803c0 .295.033.468.097.521a.17.17 0 0 0 .112.04c.084 0 .17-.06.257-.179l.145.12zm4.42-3.494a.859.859 0 0 1-.127.477.471.471 0 0 1-.411.223.583.583 0 0 1-.374-.119c-.1-.08-.198-.159-.295-.239a.208.208 0 0 0-.112-.03.4.4 0 0 0-.266.11 1.063 1.063 0 0 0-.3.482c-.104.32-.156.675-.156 1.062l.005 1.345c.003.2.014.32.034.363.071.165.257.256.557.273v.184h-2.452v-.184c.246-.02.4-.117.46-.293.03-.086.045-.292.045-.62V66.2c0-.265-.014-.433-.04-.506-.058-.169-.212-.266-.465-.293v-.189h1.856v1.054c.498-.795.98-1.193 1.445-1.193.397 0 .596.22.596.657m5.756 4.13H39.22v-.183c.196 0 .295-.063.295-.189 0-.076-.068-.216-.204-.422l-.9-1.345-.292.29v.835c0 .3.018.49.054.572.058.146.205.232.44.259v.184h-2.34v-.184c.191-.02.327-.083.407-.189.055-.073.082-.286.082-.64v-4.716c0-.298-.016-.486-.048-.566-.061-.142-.208-.228-.441-.258v-.189h1.846v4.435l1.055-1.057c.324-.323.486-.571.486-.744 0-.188-.174-.305-.523-.352v-.189h2.026v.19c-.252.013-.503.118-.752.316-.077.06-.28.255-.61.585l-.494.495 1.066 1.598c.436.652.691 1.016.765 1.092a.644.644 0 0 0 .417.189v.184m3.417-1.392c0 .268-.065.525-.194.77a1.375 1.375 0 0 1-.531.565 1.47 1.47 0 0 1-.753.196c-.213 0-.5-.07-.865-.209a.65.65 0 0 0-.198-.054c-.106 0-.195.082-.265.248H42l-.077-1.67h.164c.11.335.272.623.485.865.258.298.536.447.833.447.146 0 .27-.046.373-.14a.466.466 0 0 0 .155-.362c0-.192-.093-.378-.28-.557a8.049 8.049 0 0 0-.514-.382c-.491-.348-.811-.617-.96-.806a1.423 1.423 0 0 1-.32-.9c0-.414.133-.752.397-1.014s.6-.393 1.006-.393c.248 0 .486.061.711.184.09.05.161.075.213.075.097 0 .2-.083.31-.249h.169l.073 1.586h-.17c-.342-.815-.757-1.223-1.245-1.223a.484.484 0 0 0-.335.132.417.417 0 0 0-.145.32c0 .09.032.176.097.26.133.171.434.417.906.735.446.301.745.568.896.8.152.232.229.49.229.776m6.513-.895l-.979-2.322-1.008 2.322h1.987zm3.092 2.287h-3.18v-.189h.132c.43 0 .644-.112.644-.337a.7.7 0 0 0-.029-.183 4.947 4.947 0 0 0-.145-.373l-.349-.837h-2.322l-.276.655c-.09.214-.135.394-.135.54a.45.45 0 0 0 .223.416c.087.052.302.092.644.12v.188h-2.185v-.189c.287-.043.529-.206.726-.487.097-.136.236-.412.416-.83l2.35-5.375h.091l2.372 5.525c.223.52.409.85.557.988.11.103.265.163.466.18v.188zm5.31-.001H58.04v-.638c-.413.519-.872.778-1.376.778-.239 0-.46-.076-.663-.226a1.13 1.13 0 0 1-.418-.578c-.067-.215-.101-.591-.101-1.128v-1.842c0-.298-.016-.487-.048-.566-.062-.143-.21-.229-.442-.259v-.189h1.847v3.181c0 .478.064.765.194.861a.36.36 0 0 0 .227.075c.236 0 .496-.205.78-.617v-2.485c0-.298-.016-.488-.048-.567-.062-.143-.209-.229-.441-.259v-.189h1.846v3.635c0 .299.017.487.049.567.06.149.208.236.44.263v.184m3.828-1.392c0 .268-.063.525-.193.77a1.366 1.366 0 0 1-.53.565 1.469 1.469 0 0 1-.754.196c-.212 0-.5-.07-.865-.209a.647.647 0 0 0-.197-.054c-.107 0-.195.082-.266.248h-.165l-.077-1.67h.164c.11.335.272.623.485.865.259.298.536.447.834.447a.54.54 0 0 0 .373-.14.466.466 0 0 0 .155-.362c0-.192-.094-.378-.281-.557a7.915 7.915 0 0 0-.514-.382c-.491-.348-.811-.617-.96-.806a1.423 1.423 0 0 1-.319-.9c0-.414.132-.752.396-1.014.265-.262.6-.393 1.007-.393.248 0 .484.061.71.184.09.05.161.075.213.075.097 0 .2-.083.31-.249h.17l.073 1.586h-.17c-.343-.815-.758-1.223-1.246-1.223a.482.482 0 0 0-.334.132.416.416 0 0 0-.146.32c0 .09.033.176.097.26.133.171.435.417.907.735.446.301.744.568.896.8.152.232.227.49.227.776m3.563.501c-.262.637-.687.955-1.275.955a1.17 1.17 0 0 1-.683-.213 1.036 1.036 0 0 1-.427-.583c-.032-.116-.048-.421-.048-.916V65.7h-.592v-.173c.776-.562 1.372-1.233 1.789-2.014h.16v1.7h1.076v.487H66.2v2.87c0 .387.055.622.165.705.06.05.117.075.17.075.209 0 .408-.163.595-.487l.146.109m4.357-3.242a.862.862 0 0 1-.126.477.473.473 0 0 1-.412.223.58.58 0 0 1-.373-.119c-.1-.08-.2-.159-.296-.239a.21.21 0 0 0-.111-.03.4.4 0 0 0-.267.11 1.063 1.063 0 0 0-.3.482c-.103.32-.155.675-.155 1.062l.005 1.345c.003.2.014.32.033.363.072.165.257.256.558.273v.184h-2.452v-.184c.245-.02.399-.117.46-.293.029-.086.044-.292.044-.62V66.2c0-.265-.013-.433-.039-.506-.058-.169-.213-.266-.465-.293v-.189h1.856v1.054c.497-.795.978-1.193 1.443-1.193.398 0 .597.22.597.657m2.98 3.086v-1.56c-.708.428-1.06.862-1.06 1.3a.58.58 0 0 0 .159.405c.08.09.193.134.339.134.161 0 .349-.093.562-.28zm1.967.408c-.307.468-.67.701-1.09.701-.517 0-.807-.248-.872-.745-.552.497-1.048.745-1.488.745a.872.872 0 0 1-.644-.258.889.889 0 0 1-.257-.655c0-.467.301-.905.904-1.315.226-.155.72-.412 1.48-.77v-.47c0-.277-.005-.445-.014-.506a.585.585 0 0 0-.601-.505.87.87 0 0 0-.519.145c-.084.06-.126.13-.126.21 0 .069.046.156.138.258.125.144.187.281.187.415a.538.538 0 0 1-.187.426.667.667 0 0 1-.453.162.753.753 0 0 1-.49-.17.572.572 0 0 1-.227-.462c0-.274.113-.525.34-.75a1.82 1.82 0 0 1 .706-.433c.33-.116.672-.174 1.028-.174.332 0 .632.07.896.209.307.159.511.385.61.68.046.136.069.455.069.958v1.803c0 .295.032.468.097.521.032.027.07.04.111.04.084 0 .17-.06.257-.179l.145.12zm2.816.636H76.95v-.183c.2-.007.349-.066.445-.178.065-.077.097-.279.097-.606v-4.805c0-.282-.024-.469-.072-.562-.071-.128-.228-.201-.47-.218v-.189h1.899v5.773c0 .285.025.473.073.566.071.13.23.202.475.219v.184m2.276-6.127a.74.74 0 0 1-.22.54.715.715 0 0 1-.528.223.708.708 0 0 1-.527-.223.745.745 0 0 1-.217-.54c0-.212.072-.393.217-.544a.707.707 0 0 1 .527-.225.71.71 0 0 1 .531.223c.145.149.217.33.217.546zm.48 6.127h-2.447v-.184c.2-.007.349-.066.446-.178.064-.076.097-.278.097-.606v-2.708c0-.284-.025-.471-.073-.56-.07-.133-.228-.207-.47-.224v-.189h1.9v3.68c0 .285.024.474.072.567.071.129.23.201.475.218v.184zm2.937-1.045v-1.56c-.708.428-1.062.862-1.062 1.3a.58.58 0 0 0 .16.405c.08.09.194.134.34.134.161 0 .348-.093.561-.28zm1.967.408c-.307.468-.67.701-1.09.701-.517 0-.808-.248-.873-.745-.552.497-1.048.745-1.487.745a.874.874 0 0 1-.645-.258.889.889 0 0 1-.257-.655c0-.467.302-.905.905-1.315.226-.155.719-.412 1.48-.77v-.47c0-.277-.005-.445-.015-.506a.584.584 0 0 0-.6-.505.872.872 0 0 0-.52.145c-.083.06-.125.13-.125.21 0 .069.045.156.137.258.125.144.187.281.187.415a.539.539 0 0 1-.186.426.668.668 0 0 1-.453.162.751.751 0 0 1-.49-.17.57.57 0 0 1-.227-.462c0-.274.113-.525.338-.75a1.82 1.82 0 0 1 .708-.433c.33-.116.672-.174 1.027-.174.333 0 .632.07.897.209.307.159.51.385.61.68.046.136.069.455.069.958v1.803c0 .295.032.468.096.521a.17.17 0 0 0 .112.04c.084 0 .17-.06.256-.179l.146.12z"/></g></svg>