<svg viewBox="0 0 24 24" xmlns="http://www.w3.org/2000/svg"> <path d="M12 0c1.633 0 3.189.316 4.67.949 1.48.633 2.756 1.484 3.826 2.555 1.07 1.07 1.922 2.346 2.555 3.826.633 1.48.949 3.037.949 4.67s-.316 3.189-.949 4.67c-.633 1.48-1.484 2.756-2.555 3.826-1.07 1.07-2.346 1.922-3.826 2.555-1.48.633-3.037.949-4.67.949s-3.189-.316-4.67-.949c-1.48-.633-2.756-1.484-3.826-2.555-1.07-1.07-1.922-2.346-2.555-3.826-.633-1.48-.949-3.037-.949-4.67s.316-3.189.949-4.67c.633-1.48 1.484-2.756 2.555-3.826 1.07-1.07 2.346-1.922 3.826-2.555 1.48-.633 3.037-.949 4.67-.949zm7.301 9.363c.609-.43 1.176-1.016 1.699-1.758-.633.266-1.289.445-1.969.539.719-.422 1.207-1.055 1.465-1.898-.656.391-1.367.668-2.133.832-.664-.719-1.488-1.078-2.473-1.078-.945 0-1.746.332-2.402.996-.656.664-.984 1.473-.984 2.426 0 .289.027.547.082.773-1.398-.07-2.709-.422-3.932-1.055-1.223-.633-2.264-1.477-3.123-2.531-.297.555-.445 1.129-.445 1.723 0 .586.135 1.127.404 1.623.27.496.635.9 1.096 1.213-.539 0-1.051-.141-1.535-.422v.035c0 .82.258 1.543.773 2.168.516.625 1.168 1.023 1.957 1.195-.242.07-.539.105-.891.105-.211 0-.426-.02-.645-.059.211.68.607 1.23 1.189 1.652.582.422 1.244.641 1.986.656-1.336 1.039-2.746 1.559-4.23 1.559-.117 0-.383-.02-.797-.059 1.539 1 3.277 1.5 5.215 1.5 1.211 0 2.348-.191 3.41-.574 1.063-.383 1.971-.896 2.725-1.541.754-.645 1.402-1.385 1.945-2.221.543-.836.947-1.709 1.213-2.619.266-.91.398-1.822.398-2.736v-.445z" fill="#1DA1F2"></path> </svg>