<svg width="24" height="24" viewBox="0 0 24 24" xmlns="http://www.w3.org/2000/svg"><path d="M12 0c1.633 0 3.19.316 4.67.95 1.48.632 2.756 1.484 3.826 2.554 1.07 1.07 1.922 2.346 2.555 3.826.633 1.48.949 3.037.949 4.67s-.316 3.19-.95 4.67c-.632 1.48-1.484 2.756-2.554 3.826-1.07 1.07-2.346 1.922-3.826 2.555-1.48.633-3.037.949-4.67.949s-3.19-.316-4.67-.95c-1.48-.632-2.756-1.484-3.826-2.554-1.07-1.07-1.922-2.346-2.555-3.826A11.759 11.759 0 0 1 0 12c0-1.633.316-3.19.95-4.67.632-1.48 1.484-2.756 2.554-3.826C4.574 2.434 5.85 1.582 7.33.949 8.81.316 10.367 0 12 0zm0 17.496c2.516 0 4.14-.047 4.875-.14.992-.126 1.664-.415 2.016-.868.336-.422.527-1.18.574-2.273A46.17 46.17 0 0 0 19.5 12c0-1.71-.05-2.832-.152-3.363-.141-.75-.461-1.27-.961-1.559-.532-.312-1.551-.492-3.059-.539-.594-.023-1.703-.035-3.328-.035-2.516 0-4.14.047-4.875.14-.992.126-1.664.415-2.016.868-.336.422-.527 1.18-.574 2.273A46.17 46.17 0 0 0 4.5 12c0 1.71.05 2.832.152 3.363.141.75.461 1.27.961 1.559.532.312 1.551.492 3.059.539.594.023 1.703.035 3.328.035zM9.996 15V9L15 12l-5.004 3z" fill="#B31217" fill-rule="evenodd"></path></svg>