<svg width="75" height="79" viewBox="0 0 75 79" xmlns="http://www.w3.org/2000/svg" xmlns:xlink="http://www.w3.org/1999/xlink"><title>Page 1</title><defs><path id="a" d="M5.762 7.368H.529V.66h5.233v6.71z"/><path id="c" d="M5.603 7.368H.371V.66h5.232z"/><path id="e" d="M5.777.658v6.697H.87V.658h4.907z"/></defs><g fill="none" fill-rule="evenodd"><path d="M28.802 1.057c.286-.879-.268-1.528-1.337-.414-4.189 4.364-4.887 12.444-3.651 15.962.047.136.221.478.048.589-.177.113-.352-.15-.58-.54-1.042-1.785-1.608-5.768-1.083-8.45.021-.115.042-.237.002-.345-.09-.245-.414-.19-.532-.023-3.32 4.636-3.143 13.173 1.865 18.33 2.623 2.703 4.81 4.683 7.016 7.206 1.573 1.8 3.084 3.707 4.195 5.834.85 1.632 1.428 3.405 1.51 5.252.037.846-.094 1.664-.306 2.483-.042.164-.05.41.112.498.645.35 2.737-2.65 2.794-8.48.028-3.035-.841-6.037-2.016-8.817a33.786 33.786 0 0 0-4.151-7.168c-5.393-7.14-6.883-12.645-3.886-21.917m25.481 16.038a7.878 7.878 0 0 1 4.28.222c2.6.87 5.925 4.7 9.174 4.68 0 0 .834-.071.254.452-.578.523-4.22 3.785-12.041 2.855-6.632-.789-10.075 2.602-10.27 2.702-.237.12-.523-.042-.45-.38.183-.838 2.151-5.609-.102-11.901C42.07 7.185 48.695 3.68 48.96 3.827c.265.146-1.08 1.897 3.08 6.986 1.526 1.868 2.507 4.003 2.243 6.282" fill="#FFF"/><path d="M58.204 28.67c.05-.282.01-.546-.108-.68-.16-.182-1.96-.205-2.48-.198-.847.015-1.53.123-2.373.21-1.664.171-3.302.558-4.817 1.28-3.015 1.44-5.119 3.651-6.183 6.85-1.038 3.121-.656 11.813-5.168 12.86-1.209.28-3.858-.699-4.113-.383-.256.317 1.726 2.196 2.237 3.24.508 1.046.698 3.43 1.18 3.439.374.008.626-2.12 3.079-4.81 1.437-1.575 4.364-2.591 6.218-3.556 1.03-.537 2.072-1.058 3.075-1.646a11.029 11.029 0 0 0 3.191-2.848c-.263.205-.054 1.358.762 1.037.415-.164.712-.686 1.112-1.449 1.152-2.205 3.667-9.203 4.388-13.347M33.4 41.673c-.657-1.578-1.637-3.013-2.689-4.354-1.395-1.776-3.008-3.363-4.63-4.93-1.704-1.646-3.452-3.247-5.113-4.937-2.393-2.436-3.246-4.074-4.382-6.97-.382-.975-1.048-1.802-1.877-2.436-.474-.36-.954-.715-1.428-1.074-.268-.202-.553-.387-.792-.617-.197-.188-.452-.212-.576.03-1.031 2 .1 3.661.954 5.422.156.318.29.645.405.978.789 2.265.194 7.533.198 8.752.019 4 2.83 7.142 3.52 7.825 1.39 1.378 2.812 2.198 3.176 1.832.179-.181.064-.618-.263-1.181.656.217 1.298.39 1.879.524 1.926.446 3.85.974 5.697 1.682 2.135.819 3.683 2.078 5.457 3.5.227.182.754.726 1.04.664.694-.152-.042-3.432-.575-4.71M39.177 5.48c1.57-.73 4.982 5.47 2.11 7.342-2.874 1.87-.414 4.898 1.086 4.941 3.402.098-1.21 3.45-.173 5.891 2.24 5.276-1.355 10.395-2.312 10.293.754-7.144-5.63-11.622-4.595-13.116.446-.64 1.553-.362 1.91-.25a.15.15 0 0 0 .174-.07c1.506-2.695-3.34-5.277-4.93-5.58-1.89-.357-2.443-2.366-2.315-3.677.129-1.31 1.635-2.492 2.786-.439.654 1.17 2.811 2.713 3.654 3.288a.373.373 0 0 0 .57-.214c.59-2.118-4.306-5.956-5.286-7.23-1.327-1.727-.067-4.364 3.045-3.156 2.682 1.043 2.028 7.589 3.362 7.488 1.681-.129-1.315-4.474.914-5.512" fill="#FFF"/><path d="M22.67 5.03c.49.236-.301.505-.476.578-.24.1-3.267 1.61-4.612 5.657-.885 2.659-.475 4.727-.857 4.736-.538.011-1.964-1.478-3.465-1.616-2.104-.194-4.203.794-5.579 2.231-1.79 1.868-1.036-6.322 6.452-5.595 1.33-7.58 6.39-6.477 6.944-6.442.467.03 1.132.229 1.593.451M12.727 62.2l-1.53-3.958-.204-.623-.204.623L9.326 62.2h3.401zm2.088 3.214c-.135.08-.284.107-.474.107-.095 0-.23 0-.34-.027l-1.016-2.643H9.081l-.976 2.63a1.244 1.244 0 0 1-.312.04c-.148 0-.324-.027-.474-.107l3.308-8.635c.121-.04.257-.056.394-.056.136 0 .256.016.378.056l3.416 8.635zm6.71-6.264v5.924a6.55 6.55 0 0 1-2.78.583c-1.803 0-2.629-.99-2.629-2.493V59.15a1.857 1.857 0 0 1 .76 0v3.702c0 1.26.393 2.101 2.046 2.101.72 0 1.315-.15 1.843-.367V59.15a1.864 1.864 0 0 1 .76 0m1.721 5.707a.946.946 0 0 1 .433-.555c.339.285.908.665 1.925.665 1.274 0 1.804-.53 1.804-1.208 0-.677-.42-1.016-1.79-1.233-1.274-.19-2.21-.61-2.21-1.776 0-1.07.95-1.817 2.413-1.817 1.03 0 1.79.326 2.141.583a.996.996 0 0 1-.324.583c-.474-.285-1.043-.488-1.884-.488-1.043 0-1.6.407-1.6 1.058 0 .664.474.935 1.6 1.125 1.477.244 2.399.678 2.399 1.884 0 1.193-.962 1.952-2.549 1.952-1.205 0-1.991-.447-2.358-.773m10.695.19c-.257.216-.84.584-1.667.584-1.084 0-2.007-.57-2.007-2.049v-3.82h-1.111a1.284 1.284 0 0 1-.04-.312c0-.11.014-.205.04-.3h1.111v-1.735a1.669 1.669 0 0 1 .733 0v1.735h2.562a1.222 1.222 0 0 1 0 .611H31v3.633c0 1.246.637 1.573 1.329 1.573.569 0 .975-.258 1.273-.463.19.136.298.327.34.543m4.824-5.247a4.276 4.276 0 0 0-1.192-.148c-.678 0-1.289.19-1.668.434v5.395a1.675 1.675 0 0 1-.38.04c-.122 0-.256-.014-.379-.04v-5.735c.515-.419 1.424-.811 2.494-.811.556 0 .95.066 1.316.202.013.23-.055.488-.19.664m3.51 5.164c.786 0 1.424-.148 1.858-.325v-1.897a4.255 4.255 0 0 0-1.94-.462c-1.124 0-1.789.462-1.789 1.261 0 .84.624 1.423 1.87 1.423m2.59-3.631v3.727c-.664.365-1.734.583-2.603.583-1.79 0-2.63-.868-2.63-2.048 0-1.3 1.112-1.992 2.563-1.992.814 0 1.464.19 1.939.42v-.664c0-1.18-.76-1.722-1.912-1.722-.84 0-1.45.285-1.911.623a.703.703 0 0 1-.38-.5c.311-.299 1.139-.827 2.319-.827 1.45 0 2.615.677 2.615 2.4m2.154 4.147v-8.92a1.735 1.735 0 0 1 .746 0v8.92a1.76 1.76 0 0 1-.745 0m3.091 0V59.11c.121-.041.257-.054.379-.054s.257.013.365.054v6.371a1.631 1.631 0 0 1-.365.041 1.87 1.87 0 0 1-.379-.04m-.232-8.27c0-.324.272-.597.61-.597.327 0 .584.273.584.598a.58.58 0 0 1-.583.596.605.605 0 0 1-.61-.596m5.394 7.752c.787 0 1.425-.148 1.858-.325v-1.897a4.251 4.251 0 0 0-1.939-.462c-1.125 0-1.788.462-1.788 1.261 0 .84.622 1.423 1.87 1.423m2.589-3.631v3.727c-.664.365-1.735.583-2.603.583-1.79 0-2.63-.868-2.63-2.048 0-1.3 1.112-1.992 2.562-1.992.813 0 1.464.19 1.94.42v-.664c0-1.18-.76-1.722-1.912-1.722a3.12 3.12 0 0 0-1.91.623.702.702 0 0 1-.382-.5c.312-.299 1.14-.827 2.32-.827 1.45 0 2.615.677 2.615 2.4m7.59.176v3.97a1.777 1.777 0 0 1-.759 0v-3.754c0-1.315-.596-2.087-2.047-2.087-.84 0-1.573.311-1.952.556v5.286a1.77 1.77 0 0 1-.758 0v-5.625c.57-.448 1.586-.923 2.807-.923 1.898 0 2.71 1.153 2.71 2.576M8.065 70.124v8.675a1.692 1.692 0 0 1-.366.054c-.136 0-.243-.026-.379-.054v-6.344l.054-.922-.149.394-2.792 6.031A1.746 1.746 0 0 1 4.08 78c-.095 0-.203-.013-.339-.04l-2.9-6.046-.15-.353.04.895V78.8a1.577 1.577 0 0 1-.366.054c-.12 0-.23-.026-.365-.054v-8.66c.122-.056.284-.098.487-.098.082 0 .164.016.258.042l3.227 6.684.163.392.148-.392 3.063-6.684c.083-.013.15-.026.272-.026.136 0 .284.026.447.067" fill="#FFF"/><g transform="translate(9.474 71.594)"><mask id="b" fill="#fff"><use xlink:href="#a"/></mask><path d="M3.172 6.69c.787 0 1.425-.148 1.858-.325V4.468a4.251 4.251 0 0 0-1.939-.462c-1.125 0-1.788.462-1.788 1.26 0 .84.622 1.424 1.87 1.424m2.589-3.632v3.728c-.664.365-1.735.583-2.603.583-1.79 0-2.63-.868-2.63-2.048 0-1.3 1.112-1.992 2.562-1.992.813 0 1.464.19 1.94.42v-.664c0-1.18-.76-1.722-1.912-1.722-.841 0-1.45.286-1.91.623a.705.705 0 0 1-.382-.5c.312-.3 1.139-.827 2.319-.827 1.45 0 2.616.676 2.616 2.4" fill="#FFF" mask="url(#b)"/></g><path d="M20.928 73.12a4.271 4.271 0 0 0-1.192-.15c-.678 0-1.289.19-1.668.434V78.8a1.785 1.785 0 0 1-.759 0v-5.734c.515-.42 1.423-.812 2.494-.812.556 0 .95.066 1.316.202.011.231-.055.488-.19.664m1.572 5.68v-6.372c.121-.04.257-.054.378-.054a1.1 1.1 0 0 1 .366.054V78.8c-.108.026-.243.04-.366.04-.121 0-.257-.014-.378-.04m-.232-8.269c0-.325.272-.597.61-.597a.59.59 0 0 1 .583.597.58.58 0 0 1-.583.596.605.605 0 0 1-.61-.596m8.758 4.297v3.971a1.787 1.787 0 0 1-.76 0v-3.755c0-1.314-.596-2.087-2.046-2.087-.841 0-1.573.312-1.953.556v5.286a1.795 1.795 0 0 1-.758 0v-5.625c.57-.447 1.585-.922 2.806-.922 1.897 0 2.71 1.152 2.71 2.576m6.777.284c0-1.342-.8-2.182-1.979-2.182-1.259 0-2.1.949-2.222 2.182h4.201zm.76.636h-4.99c.042 1.52.937 2.522 2.36 2.522 1.07 0 1.627-.407 2.007-.704.19.095.353.312.406.514a3.603 3.603 0 0 1-2.412.882c-1.83 0-3.133-1.22-3.133-3.334 0-2.047 1.37-3.376 3.023-3.376 1.56 0 2.766 1.085 2.78 2.969 0 .203-.014.298-.04.527zm10.477-3.103c0-1.192-.84-2.006-2.603-2.006-.581 0-1.123.055-1.613.15v3.984c.434.082.963.109 1.627.095 1.83 0 2.59-.88 2.59-2.223m.8 0c0 1.709-1.166 2.901-3.376 2.901-.65 0-1.179-.028-1.64-.095V78.8c-.122.04-.244.053-.379.053a1.1 1.1 0 0 1-.366-.053v-8.554c.637-.19 1.423-.299 2.371-.299 2.264 0 3.375 1.072 3.39 2.698" fill="#FFF"/><g transform="translate(50.526 71.594)"><mask id="d" fill="#fff"><use xlink:href="#c"/></mask><path d="M3.014 6.69c.786 0 1.424-.148 1.858-.325V4.468a4.251 4.251 0 0 0-1.94-.462c-1.124 0-1.787.462-1.787 1.26 0 .84.622 1.424 1.869 1.424m2.59-3.632v3.728c-.665.365-1.735.583-2.604.583C1.21 7.369.37 6.5.37 5.32c0-1.3 1.112-1.992 2.563-1.992.813 0 1.463.19 1.939.42v-.664c0-1.18-.76-1.722-1.912-1.722-.84 0-1.45.286-1.91.623a.702.702 0 0 1-.381-.5c.311-.3 1.139-.827 2.319-.827 1.45 0 2.615.676 2.615 2.4" fill="#FFF" mask="url(#d)"/></g><path d="M61.823 73.12a4.276 4.276 0 0 0-1.193-.15c-.678 0-1.287.19-1.667.434V78.8a1.792 1.792 0 0 1-.759 0v-5.734c.514-.42 1.423-.812 2.494-.812.555 0 .949.066 1.316.202.012.231-.056.488-.191.664m6.737 5.652c-.15.04-.353.067-.53.067-.12 0-.23 0-.366-.026l-2.723-2.969c-.272.19-.556.338-.829.489v2.466a1.8 1.8 0 0 1-.745 0v-8.906a1.761 1.761 0 0 1 .745-.001v5.655c1.263-.665 2.549-1.818 3.228-3.092.122-.026.257-.041.392-.041.123 0 .298.027.408.068-.624 1.18-1.587 2.183-2.603 2.955l3.023 3.335z" fill="#FFF"/><g transform="translate(68.421 71.594)"><mask id="f" fill="#fff"><use xlink:href="#e"/></mask><path d="M.87 6.582c.082-.243.217-.434.433-.555.34.283.909.664 1.926.664 1.273 0 1.803-.528 1.803-1.207 0-.678-.421-1.017-1.79-1.234-1.274-.19-2.21-.61-2.21-1.774 0-1.072.95-1.818 2.413-1.818 1.03 0 1.79.326 2.142.584-.04.23-.149.419-.326.582-.472-.285-1.042-.487-1.884-.487-1.042 0-1.599.405-1.599 1.057 0 .663.475.934 1.6 1.124 1.477.244 2.4.678 2.4 1.885 0 1.194-.964 1.952-2.55 1.952-1.206 0-1.99-.447-2.358-.773" fill="#FFF" mask="url(#f)"/></g></g></svg>