<svg viewBox="0 0 24 24" xmlns="http://www.w3.org/2000/svg"><path d="M24 12c0 1.828-.389 3.553-1.166 5.174-.777 1.621-1.848 2.99-3.211 4.107-1.363 1.117-2.904 1.898-4.623 2.344v-9.129h2.566l.434-3h-3v-2.637c0-.906.437-1.359 1.313-1.359h1.91v-2.789c-.594-.133-1.312-.199-2.156-.199-1.406 0-2.48.357-3.223 1.072-.742.715-1.113 1.686-1.113 2.912v3h-2.73v3h2.73v9.504c-1.602-.031-3.125-.371-4.57-1.02-1.445-.648-2.691-1.506-3.738-2.572-1.047-1.066-1.879-2.332-2.496-3.797-.617-1.465-.926-3.002-.926-4.611 0-1.625.316-3.178.949-4.658.633-1.48 1.486-2.758 2.561-3.832 1.074-1.074 2.352-1.928 3.832-2.561s3.033-.949 4.658-.949c1.625 0 3.178.316 4.658.949 1.48.633 2.758 1.486 3.832 2.561 1.074 1.074 1.928 2.352 2.561 3.832s.949 3.033.949 4.658z" fill="#3B5998"></path></svg>