<svg width="335" height="535" fill="none" xmlns="http://www.w3.org/2000/svg"><path fill-rule="evenodd" clip-rule="evenodd" d="M17.455 669.517c-2.417 0-4.666-.178-6.638-.566-2.09-.409-14.704-58.956-14.712-62.798 0-.117.016-.183.033-.196 12.37-6.956 29.19-8.816 38.002-8.882 19.026 0 34.451 15.39 34.451 34.372 0 12.427-6.613 23.312-16.516 29.349l-.009.01-.016.01c-.11.062-.21.119-.31.181-7.68 4.552-22.854 8.52-34.285 8.52zm13.588-114.051c-11.809 0-17.692-7.842-23.164-10.198-.655-.282-1.141-.839-1.276-1.536-6.21-31.722-10.348-86.22-13.067-146.057-.05-1.071-.092-2.136-.143-3.211a4020.486 4020.486 0 01-1.712-44.468l-.1-3.216c-.974-30.229-1.654-60.587-2.107-88.967l-.075-4.642c-.571-37.148-.764-70.678-.764-95.831v-2.08c0-1.157-.94-2.09-2.098-2.09h-.042l-21.494.398h-.017a.627.627 0 01-.637-.64c0-.234.117-.469.394-.581 5.984-2.454 18.909-6.94 23.802-8.288l.21-.071c9.072-3.717 31.396-6.617 53.175-6.617 15.417 0 30.566 1.456 40.52 5.107.763.282 1.3.976 1.367 1.792 1.2 15.199 1.729 34.444 1.729 56.321-.008 106.135-12.413 274.234-19.874 343.06a2.076 2.076 0 01-1.158 1.651c-2.97 1.444-12.203 5.115-23.944 8.646-3.558 1.072-6.714 1.518-9.525 1.518z" fill="#D1D1D8"/><path fill-rule="evenodd" clip-rule="evenodd" d="M-37.525 155.603c-.202 88.351 2.173 314.341 17.725 396.067a4.292 4.292 0 002.702 3.228c14.385 5.366 41.88 3.444 53.654.017 1.695-.492 2.938-1.941 3.122-3.693 8.972-83.948 24.8-307.426 18.078-396.944a4.286 4.286 0 00-2.938-3.77c-23.264-7.692-71.194-4.623-89.305.984a4.316 4.316 0 00-3.038 4.111zm85.318 479.044c0 18.983-15.425 34.371-34.443 34.371-19.026 0-34.443-15.388-34.443-34.371 0-18.983 15.417-34.371 34.443-34.371 19.017 0 34.443 15.388 34.443 34.371z" fill="#E7E7ED"/><path fill-rule="evenodd" clip-rule="evenodd" d="M179.632 130.326c-29.909 0-47.717 14.925-47.717 38.556 0 1.338.052 2.647.152 3.925.166 2.098-.606 4.186-2.171 5.594-5.092 4.583-12.023 11.605-18.036 18.053-3.824 4.102-.378 9.551 4.932 7.749 6.961-2.362 14.47-5.21 20.22-7.783 2.429-1.087 5.272-.546 7.346 1.119 7.965 6.397 19.736 9.9 35.274 9.9 32.052 0 47.717-13.149 47.717-38.557 0-23.275-16.736-38.556-47.717-38.556z" fill="#DCDCE3"/><path fill-rule="evenodd" clip-rule="evenodd" d="M159.323 455.473c-11.808 24.984-32.588 86.266-28.342 125.392 4.255 39.125 48.232 108.701 48.232 108.701 5.976.128 17.104-8.759 18.9-12.886 0 0-35.483-75.074-32.177-110.9 3.307-35.826 31.649-95.222 31.649-95.222l-38.262-15.085z" fill="#23253C"/><path fill-rule="evenodd" clip-rule="evenodd" d="M190.502 470.088c-12.757 38.183-24.565 112.192-6.143 146.133 18.43 33.94 49.18 64.86 49.18 64.86 5.514-.796 16.223-9.955 17.952-14.456 0 0-35.861-53.919-40.2-70.674-7.092-27.341 16.432-118.562 16.432-118.562l-37.221-7.301z" fill="#23253C"/><path fill-rule="evenodd" clip-rule="evenodd" d="M188.119 477.699c-13.42-6.15-25.27-13.219-30.86-17.69.714-1.617 1.41-3.137 2.065-4.536l38.262 15.085v.001c-.009.025-.143.312-.395.84l-6.689-1.313a222.979 222.979 0 00-2.383 7.613z" fill="#151725"/><path fill-rule="evenodd" clip-rule="evenodd" d="M224.701 489.773c-1.981-.425-4.23-.922-6.798-1.503-9.567-2.157-20.092-6.124-29.785-10.569a222.28 222.28 0 012.383-7.613l6.689 1.312 30.532 5.989v.015c0 .004-.008.007-.008.012v.008c0 .005 0 .011-.008.019v.005c0 .017-.009.038-.017.064v.002c-.008.027-.008.057-.025.092v.002c-.135.543-.529 2.081-1.1 4.424-.008.005-.008.011-.008.016-.017.059-.025.118-.042.178a872.805 872.805 0 00-1.813 7.547z" fill="#151725"/><path fill-rule="evenodd" clip-rule="evenodd" d="M195.042 389.55c-6.152 2.51-8.72 3.123-14.402 6.597-.587-.752-3.743-1.574-4.339-2.376-7.83-10.445-7.436-37.322 2.283-64.91 9.718-27.588 19.605-48.752 26.269-59.951 6.672-11.199 10.188-15.941 11.976-15.001.831.438.411 1.537-.277 2.585.898-.882 1.939-1.587 2.711-1.181.864.453.193 2.113-.663 3.631 1.082-1.402 2.434-2.702 3.449-2.169 1.083.57.008 2.795-1.192 4.702 1.058-1.261 2.292-2.352 3.139-1.903.915.479-.579 3.644-2.257 6.634.1-.17.193-.324.277-.455.931-1.536 3.172-.236.872 3.63-2.291 3.865-8.443 12.165-18.153 34.435-9.71 22.272-13.025 50.913-11.758 67.291.588 7.576.084 13.831 4.507 17.519-.814.282-1.628.592-2.442.922z" fill="#EB9476"/><path fill-rule="evenodd" clip-rule="evenodd" d="M192.716 363.637c0-.796.009-1.609.026-2.438.033.84.058 1.647.025 2.347l-.051.091z" fill="#B3C3DA"/><path opacity=".1" fill-rule="evenodd" clip-rule="evenodd" d="M181.791 379.58l-10.684-3.216c-.294-7.439.151-15.559 1.435-23.95 2.132 1.624 5.791 2.817 9.601 3.912 2.023.58 4.641.905 6.924.905 1.41 0 2.686-.122 3.634-.384-.092 1.279-.008 2.866.042 4.35-.017.828-.025 1.641-.025 2.438-2.904 5.01-9.484 12.165-10.927 15.945z" fill="#000"/><path fill-rule="evenodd" clip-rule="evenodd" d="M242.771 409.059c1.737 6.404 3.416 12.91 4.104 19.527.957.012 1.939.017 2.946.006 13.067-.14 38.882-19.155 54.946-43.617 16.055-24.462 17.137-31.786 26.42-54.903 4.859-12.09 4.364-18.759 2.417-19.325-.898-.264-1.36.82-1.595 2.054-.033-1.259-.285-2.488-1.133-2.733-.931-.272-1.611 1.383-2.048 3.072.202-1.759.135-3.631-.965-3.952-1.183-.343-1.955 2.001-2.425 4.203.117-1.636 0-3.274-.932-3.545-.99-.288-2.123 3.023-2.996 6.341.05-.194.084-.37.118-.52.402-1.754-2.115-2.369-3.156 1.999-1.049 4.368-5.304 16.599-17.138 37.823-11.833 21.225-29.525 36.354-43.331 45.296-6.386 4.135-10.356 7.044-15.979 5.778.268.819.52 1.651.747 2.496z" fill="#EB9476"/><path fill-rule="evenodd" clip-rule="evenodd" d="M262.132 424.939l-.009-.011c.092-.045.176-.09.268-.136a6.653 6.653 0 01-.259.147zm-1.829-25.68c0-.008.008-.017.008-.026a15.95 15.95 0 011.066-.712c-.361.25-.722.496-1.074.738z" fill="#B3C3DA"/><path opacity=".1" fill-rule="evenodd" clip-rule="evenodd" d="M262.125 424.929l-8.468-8.165c2.031-3.239 4.003-12.587 6.647-17.503.352-.242.713-.488 1.074-.737.545-.334.99-.58 1.779-1.2.831 1.839 4.112 6.74 7.78 9.764 4.49 3.697 7.73 4.304 10.281 4.597-6.143 5.146-12.589 9.586-18.825 13.108-.092.046-.176.091-.268.136z" fill="#000"/><path fill-rule="evenodd" clip-rule="evenodd" d="M219.045 414.68c-1.914 1.153-4.045 2.243-6.295 2.562-2.836-.923-5.69-1.715-8.333-2.632-2.157-1.749-3.668-4.017-4.994-6.731-2.4-4.883-3.265-7.386-4.389-12.844 10.558-.268 11.489-.708 13.73-4.313 2.484-3.982 8.879-27.357 8.879-27.357l18.825 6.418s-6.697 22.945-7.352 26.922c-.394 2.404 1.67 4.834 4.801 7.753-4.591 3.884-9.727 7.121-14.872 10.222z" fill="#EB9476"/><path fill-rule="evenodd" clip-rule="evenodd" d="M213.17 378.711c-.026-.01-.042-.021-.067-.032.36-1.18.721-2.35 1.057-3.488a.6.6 0 01.067.044c-.344 1.15-.696 2.32-1.057 3.476z" fill="#B3C3DA"/><path fill-rule="evenodd" clip-rule="evenodd" d="M218.08 380.04a8.814 8.814 0 01-2.761-.452 14.3 14.3 0 01-2.149-.875c.361-1.157.714-2.327 1.058-3.477.957.633 2.064 1.159 3.34 1.562a9.69 9.69 0 003.03.483c2.023 0 4.07-.611 5.984-1.725-2.476 2.798-5.405 4.484-8.502 4.484z" fill="#C77E64"/><path fill-rule="evenodd" clip-rule="evenodd" d="M228.68 362.262c-1.184 3.573.764 7.427 4.347 8.606a6.832 6.832 0 008.62-4.337c1.183-3.574-.764-7.428-4.348-8.606a6.829 6.829 0 00-8.619 4.337z" fill="#EB9476"/><path fill-rule="evenodd" clip-rule="evenodd" d="M231.743 363.271a3.59 3.59 0 002.291 4.536 3.607 3.607 0 004.549-2.285 3.59 3.59 0 00-2.292-4.535 3.602 3.602 0 00-4.548 2.284z" fill="#AC4637"/><path fill-rule="evenodd" clip-rule="evenodd" d="M210.871 356.282c-3.022 9.121-2.107 17.73 6.697 20.518 6.722 2.211 14.611-3.39 17.624-12.511 3.013-9.12 3.164-17.269-6.705-20.519-10.869-3.577-14.603 3.391-17.616 12.512z" fill="#EB9476"/><path fill-rule="evenodd" clip-rule="evenodd" d="M226.523 357.354a.962.962 0 101.829.602.961.961 0 00-.612-1.214.965.965 0 00-1.217.612zm-12.556-4.135a.847.847 0 00.546 1.069.841.841 0 001.066-.539.843.843 0 00-.538-1.07.855.855 0 00-1.074.54z" fill="#000105"/><path fill-rule="evenodd" clip-rule="evenodd" d="M212.717 359.701a2.983 2.983 0 01-3.164 2.033 31.063 31.063 0 011.318-5.455c.025-.098.059-.194.092-.291a2.973 2.973 0 011.754 3.713zm10.306 3.283a2.985 2.985 0 001.905 3.772 2.993 2.993 0 003.777-1.901 2.982 2.982 0 00-1.905-3.77 2.989 2.989 0 00-3.777 1.899zm-3.19-8.295l-3.718 3.548a.815.815 0 00.286 1.363l2.602.949.83-5.86z" fill="#E36D57"/><path fill-rule="evenodd" clip-rule="evenodd" d="M213.221 361.54c-.402 1.221.974 2.774 3.08 3.467 2.107.693 4.146.265 4.549-.956.403-1.221-1.636-.88-3.743-1.574-2.106-.693-3.483-2.158-3.886-.937z" fill="#FFFFFE"/><path fill-rule="evenodd" clip-rule="evenodd" d="M236.787 359.173l-1.595 5.116-1.829-.491c.537-1.213 1.208-4.398 1.418-5.45l2.006.825z" fill="#23253C"/><path fill-rule="evenodd" clip-rule="evenodd" d="M218.029 344.299c-1.595-2.611.663-12.029 9.349-10.975 6.681.811 12.102 4.927 14.318 8.946 2.216 4.019 4.23 6.896 9.181 6.333 4.952-.566 9.056 2.627 10.239 7.162 1.192 4.534-2.685 8.5-6.571 8.072-3.894-.427-4.566-4.657-8.812-3.69-6.337 1.444-9.056.657-11.188-1.257-2.836-2.552-3.768-5.323-3.323-10.69 0 0-9.534-1.594-13.193-3.901z" fill="#23253C"/><path fill-rule="evenodd" clip-rule="evenodd" d="M254.998 363.866a4.917 4.917 0 01-.453-.028c-3.499-.383-4.397-3.833-7.612-3.833a5.39 5.39 0 00-1.2.143c-2.249.512-4.037.744-5.514.744-1.552 0-2.744-.256-3.743-.713a7.426 7.426 0 01-1.829-1.194l-.101-.094c-2.4-2.153-3.433-4.461-3.433-8.355.009-.721.042-1.496.109-2.335.747-1.647 2.107-2.305 3.542-2.305 1.737 0 3.575.971 4.524 2.313 1.737 2.446 3.676 5.62 7.36 5.841 3.684.22 6.94 2.728 7.88 5.243.47 1.244.529 3.059.47 4.573z" fill="#23253C"/><path fill-rule="evenodd" clip-rule="evenodd" d="M231.534 355.978c-.605-.313-1.192-.625-1.78-.898-.596-.269-1.191-.5-1.796-.675a10.207 10.207 0 00-1.863-.339c-.621-.044-1.292-.046-1.905.045l-.042.007a.287.287 0 01-.327-.242.296.296 0 01.134-.29c1.334-.784 2.921-.774 4.347-.389a7.714 7.714 0 011.989.919c.311.188.58.43.865.649.252.253.512.499.747.768a.293.293 0 01-.034.412.284.284 0 01-.319.039l-.016-.006zm-12.438-3.865c-.487-.285-.94-.578-1.385-.861-.453-.263-.89-.533-1.351-.722a4.976 4.976 0 00-1.368-.429c-.453-.066-.965-.059-1.402.059l-.075.021a.289.289 0 01-.353-.199.302.302 0 01.076-.278c.503-.49 1.149-.69 1.796-.713.654-.025 1.284.138 1.838.393.57.251 1.065.597 1.51.988.21.203.42.409.613.63.168.238.352.458.512.706a.294.294 0 01-.101.406.29.29 0 01-.302.003l-.008-.004z" fill="#E36D57"/><path fill-rule="evenodd" clip-rule="evenodd" d="M277.994 416.004s-4.523-2.783-8.972-7.701c-4.053-4.487-8.149-11.168-8.149-11.168-2.022 1.714-8.753 4.791-14.569 7.28-5.137 2.196-11.146.749-14.612-3.617-2.09-2.628-2.274-4.11-2.274-4.11s-10.055 2.704-12.866 1.762c-2.82-.94-6.328-10.784-6.328-10.784a257.132 257.132 0 00-7.503-.188c-3.684-.029-6.731-2.875-6.974-6.543-.646-10.022-.605-22.47-.605-22.47s-7.729.769-14.477-.814c-6.747-1.583-11.145-3.046-11.145-3.046s-2.644 22.828.512 40.218c-1.469 11.523-13.445 61.351-13.445 61.351s9.24 7.791 29.609 14.705c19.093 6.481 44.514 7.123 44.514 7.123s10.701-31.637 15.535-40.437c14.276-8.171 31.749-21.561 31.749-21.561z" fill="#F1F1F3"/></svg>