<svg width="86" height="110" viewBox="0 0 86 110" fill="none" xmlns="http://www.w3.org/2000/svg"><path fill-rule="evenodd" clip-rule="evenodd" d="M47.917 16.777c-.095 1.381-1.283 2.423-2.651 2.324-1.366-.097-2.398-1.294-2.302-2.675.096-1.381 1.283-2.423 2.65-2.326 1.367.097 2.4 1.296 2.303 2.677z" fill="#EEC4B0"/><path fill-rule="evenodd" clip-rule="evenodd" d="M43.92 15.956c-1.135-1.003-1.398-4.616.68-6.07.757-.528 1.787-.708 2-1.469.41-1.469 2.626-2.557 4.259-1.732 2.104 1.06 3.122.243 4.332-.996 1.3-1.332 2.113-2.74 5.694-2.108 3.583.634 4.64.209 5.31-1.514.673-1.721 3.955-3.123 6.995-.981 3.042 2.144 4.011 3.824 6.061 3.055 2.05-.77 4.127-1.96 5.941-.034 1.816 1.926.326 5.671-2.05 5.629-2.378-.043-1.19 2.81-.553 4.526.638 1.719-1.125 4.333-4.122 3.282-2.995-1.048-3.661-.175-4.635 1.4-.976 1.572-3.532 1.498-4.773.569-1.242-.927-2.75-1.665-4.53-.565-1.781 1.1-2.37 1.8-4.46.911-2.088-.889-2.502-.57-3.688.07-1.185.641-3.568-.268-3.568-.268l-8.893-3.705z" fill="#23253C"/><path fill-rule="evenodd" clip-rule="evenodd" d="M61.694 20.263c-.448 0-.96-.123-1.625-.405-.987-.42-1.582-.596-2.059-.596-.535 0-.922.218-1.546.556-.428.23-1.003.304-1.565.304-.075 0-.151-.003-.227-.005a7.4 7.4 0 01-.76-.135c.076-.279.138-.571.185-.875h.09a2.488 2.488 0 002.409-1.88h.001s.214-.712-.053-1.56l.145.01c1.74-1.024 2.654-1.402 3.63-1.402.588 0 1.199.137 2.03.355.216.057.408.084.58.084 1.593 0 1.56-2.212 3.652-2.92.367-.127.686-.178.974-.178.75 0 1.276.355 1.831.71.553.356 1.135.712 1.995.712.03 0 .062 0 .093-.003 2.05-.06 1.547-2.031 3.924-2.031.094 0 .19.002.292.009 2.527.153 2.862 2.047 6.314 2.047h.147c.106.313.22.619.327.902v.005c.002.006.007.013.009.02l.103.274c.087.239.129.493.129.752-.002 1.32-1.11 2.771-2.922 2.771a4.05 4.05 0 01-1.33-.24c-.905-.318-1.596-.457-2.148-.457-1.277 0-1.807.756-2.487 1.856-.537.866-1.553 1.233-2.565 1.233-.827 0-1.651-.245-2.208-.664-.8-.596-1.71-1.116-2.732-1.116-.564 0-1.164.16-1.799.551-1.214.752-1.874 1.316-2.834 1.316z" fill="#23253C"/><path fill-rule="evenodd" clip-rule="evenodd" d="M51.713 16.777c.096 1.381 1.281 2.423 2.65 2.324a2.498 2.498 0 002.303-2.675c-.095-1.381-1.283-2.423-2.651-2.326-1.366.097-2.398 1.296-2.302 2.677z" fill="#EEC4B0"/><path fill-rule="evenodd" clip-rule="evenodd" d="M54.93 17.598c-.265 0-.506-.031-.729-.087a16.252 16.252 0 00-.156-2.223c.018-.002.036-.002.052-.005.03-.002.062-.002.093-.002a1.31 1.31 0 011.304 1.229 1.32 1.32 0 01-.444 1.086c-.042.002-.082.002-.12.002z" fill="#C57E8E"/><path fill-rule="evenodd" clip-rule="evenodd" d="M53.845 28.322c-.468-1.761-.22-11.603-.22-11.603l-7.646.283s-.092 9.716-.292 11.273c-.203 1.555-2.833 2.176-5.923 3.764-.424.218-.9.72-1.32 1.084.5 1.13 10.795 4.92 11.526 5.896.804 1.071 8.456-4.636 9.346-7.108-3.597-1.996-5.03-1.935-5.471-3.589z" fill="#EEC4B0"/><mask id="a" maskUnits="userSpaceOnUse" x="46" y="21" width="8" height="5"><path fill-rule="evenodd" clip-rule="evenodd" d="M49.57 25.183c-1.869 0-2.945-2.047-3.485-3.33l.007-.296c.744 1.327 1.972 2.13 3.92 2.13.038 0 .076 0 .114-.002 1.187-.018 2.275-.734 3.03-1.937 0 .117 0 .234.002.353-.686 1.134-1.37 3.048-3.545 3.082h-.042z" fill="#fff"/></mask><g mask="url(#a)"><path fill-rule="evenodd" clip-rule="evenodd" d="M49.57 25.183c-1.869 0-2.945-2.047-3.485-3.33l.007-.296c.744 1.327 1.972 2.13 3.92 2.13.038 0 .076 0 .114-.002 1.187-.018 2.275-.734 3.03-1.937 0 .117 0 .234.002.353-.686 1.134-1.37 3.048-3.545 3.082h-.042z" fill="url(#paint0_linear)"/></g><path fill-rule="evenodd" clip-rule="evenodd" d="M46.745 16.693a1.314 1.314 0 01-1.397 1.226 1.317 1.317 0 01-1.212-1.41 1.31 1.31 0 011.397-1.226c.72.051 1.263.681 1.212 1.41zm6.14 0a1.314 1.314 0 001.397 1.226 1.317 1.317 0 001.212-1.41 1.31 1.31 0 00-1.397-1.226 1.316 1.316 0 00-1.212 1.41z" fill="#EA928F"/><path fill-rule="evenodd" clip-rule="evenodd" d="M45.123 17.67c.245 3.524 1.46 6.07 5.003 6.015 2.22-.034 4.098-2.509 4.076-6.043-.023-3.705-.785-6.677-4.934-6.68-4.023-.004-4.388 3.184-4.145 6.707z" fill="#EEC4B0"/><path fill-rule="evenodd" clip-rule="evenodd" d="M49.711 17.621l-.851 1.683c-.1.2.042.436.263.439l1.01.013-.422-2.135z" fill="#EA928F"/><path fill-rule="evenodd" clip-rule="evenodd" d="M50.563 16.532a.092.092 0 01-.083-.054.093.093 0 01.016-.104c.187-.2.416-.324.661-.411a2.381 2.381 0 01.892-.127c.058.147.116.286.18.412a4.12 4.12 0 00-.287-.011h-.02a3.178 3.178 0 00-1.308.279l-.011.007a.087.087 0 01-.04.009z" fill="#A88794"/><path fill-rule="evenodd" clip-rule="evenodd" d="M52.167 18c-.165 0-.33-.02-.486-.068-.078-.018-.154-.054-.227-.081-.072-.038-.145-.074-.212-.117a.062.062 0 01-.02-.086c.011-.02.031-.029.053-.029h.014c.151.03.296.061.441.081a3 3 0 00.399.03h.033c.143-.005.286-.02.424-.052s.28-.077.405-.137l.01-.005a.061.061 0 01.082.027.062.062 0 01-.011.07c-.234.254-.575.358-.905.367zm-4.863 0c-.165 0-.33-.02-.485-.068-.08-.018-.154-.054-.23-.081-.071-.038-.142-.074-.212-.117a.062.062 0 01-.02-.086.063.063 0 01.054-.029h.013c.152.03.299.061.444.081.133.018.265.03.396.03h.036c.143-.005.283-.02.423-.052a2 2 0 00.406-.137l.007-.005a.068.068 0 01.029-.007c.022 0 .044.012.053.034a.061.061 0 01-.009.07c-.234.254-.577.358-.905.367z" fill="#0F0E0E"/><path fill-rule="evenodd" clip-rule="evenodd" d="M46.21 16.405a.09.09 0 01-.084-.06.095.095 0 01.018-.097 1.42 1.42 0 01.595-.358 2.11 2.11 0 01.668-.099h.007c.227.007.452.043.666.108.107.03.21.077.312.117.098.05.196.101.29.162a.097.097 0 01.029.13.097.097 0 01-.08.043h-.01l-.008-.002c-.107-.011-.207-.034-.31-.054-.1-.014-.2-.036-.3-.047a4.462 4.462 0 00-.593-.05h-.043a2.96 2.96 0 00-1.108.194l-.015.006a.089.089 0 01-.033.007z" fill="#A88794"/><path fill-rule="evenodd" clip-rule="evenodd" d="M48.526 20.764c-.005.167.573.32 1.268.306.693-.013 1.239-.15 1.248-.355.009-.243-.566.043-1.26.054-.694.013-1.247-.259-1.256-.005z" fill="#EA928F"/><path fill-rule="evenodd" clip-rule="evenodd" d="M53.315 16.42H53.3l-.007-.001c-.12-.018-.236-.048-.35-.07-.115-.018-.229-.045-.343-.06a6.039 6.039 0 00-.372-.041 4.744 4.744 0 01-.18-.412c.214.011.425.045.626.103.125.032.24.086.357.129.113.056.225.114.332.177a.095.095 0 01.03.13.089.089 0 01-.08.046z" fill="#937792"/><path fill-rule="evenodd" clip-rule="evenodd" d="M56.543 15.668l-.049-.002a2.49 2.49 0 00-2.48-1.566c-.073.007-.147.014-.218.025-.397-1.336-1.141-2.357-2.49-2.846 1.349.036 2.563.425 3.372 1.283.493.52.477 1.309 1.028 1.815.454.416.706.87.837 1.291z" fill="#365B99"/><path fill-rule="evenodd" clip-rule="evenodd" d="M56.595 17.227c.065-.254.091-.524.071-.8a2.522 2.522 0 00-.171-.761l.049.002c.267.848.053 1.56.053 1.56h-.002z" fill="#315797"/><path fill-rule="evenodd" clip-rule="evenodd" d="M55.05 17.596a1.32 1.32 0 00.444-1.086 1.31 1.31 0 00-1.397-1.226l-.052.004a8.701 8.701 0 00-.25-1.163c.072-.011.146-.018.22-.024a2.49 2.49 0 012.652 2.326c.02.276-.008.546-.072.8-.6.246-1.105.354-1.544.37z" fill="#C7A5AB"/><path fill-rule="evenodd" clip-rule="evenodd" d="M54.202 17.511c-.593-.15-1.059-.459-1.518-.726-.187-.108-.332-.297-.454-.536.122.009.247.025.372.04.113.016.227.043.343.061.114.023.23.052.35.07l.006.002h.014a.089.089 0 00.08-.045.095.095 0 00-.031-.13 5.19 5.19 0 00-.332-.178c-.116-.043-.232-.097-.357-.128a2.762 2.762 0 00-.626-.104c-.365-.97-.6-2.301-1.553-2.6a2.008 2.008 0 00-.62-.104c-.367 0-.66.12-.958.237-.3.117-.606.234-1.007.234-.18 0-.379-.023-.604-.081a3.148 3.148 0 00-.787-.113c-.987 0-1.252.632-1.279.704.03-.142.063-.279.1-.414.194-.459.758-1.203 2.392-1.795 1.105-.398 2.28-.628 3.376-.628.066 0 .131.003.198.003 1.348.488 2.092 1.51 2.49 2.845.106.367.189.756.249 1.163.104.693.147 1.44.156 2.223z" fill="#C7A5AB"/><path fill-rule="evenodd" clip-rule="evenodd" d="M56.637 15.69c-2.012.824-2.803 1.063-3.737.52-.933-.544-.813-3.118-2.188-3.55-1.373-.431-1.687.826-3.2.646-1.62-.191-2.349.529-2.349.529s-.532-2.43 2.01-3.348c2.543-.918 6.222-.088 7.724 1.498 1.5 1.587 1.74 3.706 1.74 3.706z" fill="#23253C"/><path fill-rule="evenodd" clip-rule="evenodd" d="M50.046 35.39c1.284.023 4.951-4.701 5.522-5.446a2.42 2.42 0 01-.33-.153s-4.127 5.086-5.192 5.138c-1.063.052-5.952-5.062-5.952-5.062s-.13.048-.352.133c.535.58 4.996 5.366 6.304 5.39z" fill="#EF5185"/><path fill-rule="evenodd" clip-rule="evenodd" d="M44.094 29.867s-4.66 1.712-6.307 3.451c-1.39 1.467-1.95 2.405-1.95 2.405L40.6 51.345h16.919l5.927-15.649s-1.292-2.377-4.178-3.963c-2.886-1.584-3.7-1.74-4.029-1.942 0 0-4.127 5.086-5.192 5.138-1.063.052-5.952-5.062-5.952-5.062z" fill="#4E888C"/><path fill-rule="evenodd" clip-rule="evenodd" d="M35.938 35.773c.71 2.76 3.396 3.069 3.85 6.648-2.33 4.346-4.71 10.843-4.71 10.843s9.067.46 12.715 1.584l-.103 4.349H32.898c-3.242 0-4.793-2.23-3.748-7.264 1.317-6.34 4.862-13.449 6.788-16.16zm27.475.026c-.231 2.812-4.603 4.77-3.85 6.648A2888.75 2888.75 0 0063.99 53.39s-8.976-.256-12.318.819v5.012h14.78c3.243 0 4.837-2.461 3.669-7.467-1.145-4.91-3.445-11.353-6.708-15.956z" fill="#EEC4B0"/><path fill-rule="evenodd" clip-rule="evenodd" d="M55.962 70.676H41.001a1.884 1.884 0 01-1.872-1.887v-4.661c0-1.04.842-1.888 1.872-1.888h14.961c1.028 0 1.87.848 1.87 1.888v4.66c0 1.04-.842 1.888-1.87 1.888z" fill="#23253C"/><path fill-rule="evenodd" clip-rule="evenodd" d="M41.317 70.984c-4.648 0-5.85-4.956-4.847-10.05 1.175-5.972 7.078-8.823 12.569-8.823 5.493 0 11.222 3.418 12.78 9.282 1.21 4.558-.408 9.59-5.057 9.59H41.317z" fill="#23253C"/><path fill-rule="evenodd" clip-rule="evenodd" d="M39.786 62.96c3.637-.55 5.08 2.993 6.416 8.57 1.337 5.579 4.813 20.512 6.551 25.64 1.6 4.723-.267 3.24-1.07 5.803-.744 2.38-1.954 4.157-3.743 4.251-1.27.068-.023-3.846 1.404-6.814-.2-2.767-3.075-8.166-7.552-17.95-4.408-9.63-4.502-11.155-4.77-14.395-.267-3.237 1.427-4.902 2.764-5.104z" fill="#EEC4B0"/><path fill-rule="evenodd" clip-rule="evenodd" d="M52.553 62.826c3.41 0 3.342 6.814 3.142 10.459-.2 3.644-2.34 15.115-5.014 22.874-2.674 7.759-3.075 9.041-3.142 11.269-.067 2.227-2.538 2.632-4.21 2.564-1.671-.067-1.671-.472.067-5.264 1.738-4.79 3.942-18.285 4.343-26.247.401-7.963-1.337-15.655 4.814-15.655z" fill="#F2D0BE"/><path fill-rule="evenodd" clip-rule="evenodd" d="M36.395 65.614c1.417-2.405 17.299-2.454 22.085-.308l-.303-6.825-20.365.382-1.417 6.751z" fill="#23253C"/><path fill-rule="evenodd" clip-rule="evenodd" d="M59.47 59.016H37.43c-.768 0-1.39-.628-1.39-1.404V43.648c0-.776.622-1.406 1.39-1.406h22.04a1.4 1.4 0 011.392 1.406v13.964c0 .776-.624 1.404-1.393 1.404z" fill="#D1D1D8"/><path fill-rule="evenodd" clip-rule="evenodd" d="M60.862 59.324H36.04v-15.37c0-.775.622-1.405 1.39-1.405h22.04a1.4 1.4 0 011.392 1.406v15.37z" fill="#E7E7ED"/><path fill-rule="evenodd" clip-rule="evenodd" d="M60.862 59.324H36.04v.486c0 .169.134.306.3.306h24.22a.305.305 0 00.302-.306v-.486zM48.503 54.24c1.542 0 2.794-1.266 2.794-2.83 0-1.562-1.252-2.828-2.794-2.828s-2.793 1.266-2.793 2.829c0 1.563 1.251 2.828 2.793 2.828zm3.125-2.83c0 1.748-1.399 3.164-3.125 3.164-1.725 0-3.125-1.416-3.125-3.163 0-1.747 1.4-3.163 3.125-3.163 1.726 0 3.125 1.416 3.125 3.163z" fill="#D1D1D8"/><path fill-rule="evenodd" clip-rule="evenodd" d="M47.806 52.867a.213.213 0 01-.14-.041.156.156 0 01-.047-.121v-2.75c0-.056.016-.098.047-.126.032-.028.079-.042.14-.042a.2.2 0 01.137.044c.033.03.05.07.05.123v2.75c0 .053-.017.094-.05.122a.207.207 0 01-.137.041zm1.86-.18c0 .05-.018.092-.054.128a.189.189 0 01-.137.052.187.187 0 01-.1-.024.34.34 0 01-.087-.09l-.978-1.28a.526.526 0 01-.065-.102.202.202 0 010-.165.559.559 0 01.06-.094l.91-1.21a.425.425 0 01.088-.09.152.152 0 01.085-.025c.052 0 .097.017.133.05a.165.165 0 01.054.126.185.185 0 01-.043.119l-.896 1.184.996 1.315c.011.018.02.035.026.051a.162.162 0 01.008.055z" fill="#D1D1D8"/><defs><linearGradient id="paint0_linear" x1="38.922" y1="17.306" x2="38.732" y2="29" gradientUnits="userSpaceOnUse"><stop stop-color="#B87D72"/><stop offset="1" stop-color="#C5A2AA"/></linearGradient></defs></svg>