<svg width="375" height="535" fill="none" xmlns="http://www.w3.org/2000/svg"><path fill-rule="evenodd" clip-rule="evenodd" d="M166.481 462.262v-4.026c0-4.299.185-8.547.563-12.75a42.482 42.482 0 00.386 7.847 17.968 17.968 0 01-.949 8.929z" fill="#E3F3F8"/><path fill-rule="evenodd" clip-rule="evenodd" d="M297.726 631.449c0-18.982-15.417-34.372-34.443-34.372-8.813.067-25.64 1.927-38.002 8.882a2.108 2.108 0 00-1.032 2.258c.243 1.15.629 2.925 1.124 5.155a2.118 2.118 0 01-.226 1.478 34.131 34.131 0 00-4.289 16.599c0 13.132 7.386 24.536 18.237 30.323.395.212.722.544.915.951 2.325 4.816 4.658 7.764 6.806 7.361 9.501-1.779 24.758-3.568 34.057-9.085.11-.061.21-.119.311-.181l.017-.01.016-.009c9.904-6.038 16.509-16.923 16.509-29.35zM430.262 300.71c-12.824 68.213-45.933 99.122-82.248 147.084-23.902 31.577-31.833 77.708-33.696 91.088-.21 1.64-1.385 3.092-2.703 4.659-10.969 13.029-28.526 17.054-66.519 20.237-1.335.112-2.442-1.037-2.258-2.364l.814-6.061a2.084 2.084 0 00-1.443-2.269c-6.454-2.033-11.867-4.965-15.443-8.804a2.078 2.078 0 01-.545-1.318c-3.945-90.13 48.182-142.169 78.009-179.369 29.903-37.303 61.946-114.044 2.132-122.57-37.305-5.318-46.655 33.478-47.905 39.673a2.07 2.07 0 01-.839 1.319c-1.914 1.336-4.071 2.554-6.412 3.657-11.087 5.872-34.175 15.823-62.231 15.055-8.368-.229-12.354-5.737-13.429-14.285a2.06 2.06 0 00-.881-1.46c-.31-.211-.621-.427-.923-.646a2.118 2.118 0 01-.864-1.752c.872-32.807 9.987-58.391 24.036-77.791.084-.123.168-.258.227-.398 5.136-12.148 9.466-21.197 10.608-23.558.193-.396.503-.721.889-.93 37.75-20.458 73.31-24.038 73.31-24.038v.003a156.23 156.23 0 0136.163-1.181c63.012 5.329 126.905 67.485 112.151 146.019z" fill="#D1D1D8"/><path fill-rule="evenodd" clip-rule="evenodd" d="M242.515 601.107c-19.018 0-34.443 15.389-34.443 34.371 0 18.982 15.425 34.371 34.443 34.371 19.026 0 34.443-15.389 34.443-34.371 0-18.982-15.417-34.371-34.443-34.371zm51.06-439.19c63.02 5.329 126.905 67.486 112.142 146.019-12.815 68.213-45.924 99.122-82.239 147.084-26.269 34.703-33.243 86.991-34.082 94.059a2.083 2.083 0 01-.714 1.337c-20.528 17.382-70.842 17.823-86.452 1.09a2.078 2.078 0 01-.545-1.318c-3.945-90.13 48.182-142.168 78.009-179.368 29.903-37.305 61.946-114.044 2.132-122.571-37.373-5.327-46.688 33.613-47.914 39.707-.1.519-.394.981-.831 1.285-19.974 13.963-66.251 15.196-83.858 2.331a2.126 2.126 0 01-.882-1.762c2.678-100.416 82.441-133.204 145.234-127.893z" fill="#E7E7ED"/><path opacity=".1" fill-rule="evenodd" clip-rule="evenodd" d="M299.555 549.175a1.33 1.33 0 01-1.301-1.635c1.427-6.095 2.098-13.334 2.107-13.407a1.33 1.33 0 011.452-1.206c.73.067 1.275.715 1.208 1.448-.025.303-.696 7.492-2.165 13.772a1.337 1.337 0 01-1.301 1.028z" fill="#2E2C2C"/><path fill-rule="evenodd" clip-rule="evenodd" d="M361.677 53.725h68.609c6.463 0 11.75 5.278 11.75 11.73v5.05c0 6.452-5.287 11.73-11.75 11.73h-10.312a4 4 0 00-2.857 1.201l-13.038 13.305c-2.726 2.782-7.417.422-6.808-3.425l1.021-6.455a4 4 0 00-3.951-4.625h-32.664c-6.471 0-11.758-5.279-11.758-11.73v-5.05c0-6.453 5.287-11.731 11.758-11.731zM101.9 351.986H84.64c-15.285 0-27.796 12.482-27.796 27.738v9.876c0 12.216 8.023 22.646 19.067 26.319 2.063.687 3.516 2.684 3.177 4.832l-.825 5.216c-.609 3.847 4.081 6.207 6.808 3.425l10.636-10.854a4 4 0 012.857-1.201h3.336c15.286 0 27.797-12.482 27.797-27.737v-9.876c0-15.256-12.511-27.738-27.797-27.738z" fill="#DCDCE3"/><path fill-rule="evenodd" clip-rule="evenodd" d="M389.834 191.507c-24.674-.002-44.557-16.111-65.58-23.763-14.175-5.159-28.249-6.991-42.995-6.991-8.863 0-17.977.662-27.503 1.662 0 0 10.844-3.257 28.434-3.257 1.343 0 2.728.019 4.146.06 27.771.799 82.508 12.523 82.508 12.523l12.102 7.522a133.782 133.782 0 0114.058 12.007 56.229 56.229 0 01-5.17.237zm-136.078-29.091l-.578-.513.377-.108c.134.405.201.621.201.621z" fill="#D1D1D8"/><path fill-rule="evenodd" clip-rule="evenodd" d="M377.337 149.817l-61.551-10.451 18.002-26.601c1.233-1.817 3.944-3 6.059-2.64l53.889 9.149c2.115.36 2.837 2.125 1.603 3.943l-18.002 26.6z" fill="#2E2C2C"/><path fill-rule="evenodd" clip-rule="evenodd" d="M376.346 147.585l-57.061-9.69 17.717-26.192 57.07 9.689-17.726 26.193z" fill="#FFFFFE"/><path fill-rule="evenodd" clip-rule="evenodd" d="M249.485 125.11c-3.466 14.656 4.271 37.304 4.271 37.304s12.564-3.774 32.581-3.197c27.771.799 82.507 12.523 82.507 12.523l14.15 8.794s5.472-27.313-18.422-33.308c-23.902-5.996-58.211-14.388-58.211-14.388l-.268-7.994-56.608.266z" fill="#23253C"/><path fill-rule="evenodd" clip-rule="evenodd" d="M372.814 156.954c-9.265 0-67.535-7.435-69.768-20.024-.36-2.028-.671-4.063-.94-6.058 2.04-.508 3.391-1.012 4.146-1.333l.109 3.3s3.198.782 8.326 2.039c7.914 11.285 50.591 21.101 59.168 22.015a6.828 6.828 0 01-1.041.061z" fill="#1A1C2C"/><path fill-rule="evenodd" clip-rule="evenodd" d="M330.304 105.212c-.176 5.685-2.316 21.85-2.316 21.85s12.287 4.175 22.03 8.838c9.744 4.663 14.285 7.993 17.356 9.06 1.586.549 4.306.531 6.63.514 2.174-.017 3.987-.034 4.188.418.395.933-4.011 1.998-4.011 1.998s4.011.8 5.077.399c1.066-.399.403 2-.94 2.532 0 0 1.074 1.466-.26 1.999 0 0 .663 1.866-1.209 2.398 0 0-.134 1.577-1.728 1.731-4.146.401-60.486-11.856-61.686-25.179-1.242-13.832-.579-27.801-.579-27.801l17.448 1.243z" fill="#944F39"/><path fill-rule="evenodd" clip-rule="evenodd" d="M312.638 108.991l.209-4.78c-.025.6-.092 2.296-.134 4.739-.05.026-.075.041-.075.041z" fill="#B3C3DA"/><path opacity=".1" fill-rule="evenodd" clip-rule="evenodd" d="M312.715 108.947c.042-2.442.109-4.138.134-4.739l.009-.239 17.137 1.826v1.46s-1.871-.399-7.612-.399c-5.27 0-9.081 1.797-9.668 2.091z" fill="#2E2C2C"/><path fill-rule="evenodd" clip-rule="evenodd" d="M332.587 22.414l.84 4.801a.783.783 0 01-.991.88l-2.526-.741 2.677-4.94z" fill="#804431"/><path fill-rule="evenodd" clip-rule="evenodd" d="M332.36 24.019c-3.944 8.217-7.956 15.305-15.92 10.522-3.08-1.846-2.459-12.13 1.066-20.533 3.533-8.389 2.635-14.113 11.053-10.112 12.085 5.747 7.754 11.907 3.801 20.123z" fill="#944F39"/><path fill-rule="evenodd" clip-rule="evenodd" d="M334.501 19.504c-.352-.109-.671-.243-.999-.377l-.948-.398a24.536 24.536 0 00-.94-.376c-.159-.059-.31-.12-.47-.173l-.243-.083-.126-.04-.067-.024-.042-.013-.034-.01-.033-.014-.059-.038-.067-.155a.19.19 0 01.201-.185.2.2 0 01.185.2l-.059-.149-.059-.034-.017-.01v-.004l.026-.006.067-.013.134-.015c.101-.008.193-.009.294-.009.184.005.377.023.562.056.378.062.73.18 1.074.32.344.148.672.318.974.523.31.202.596.43.847.702a.195.195 0 01-.008.282l-.193.044z" fill="#2E2C2C"/><path fill-rule="evenodd" clip-rule="evenodd" d="M329.482 26.698a2.516 2.516 0 01-4.54-2.174 2.527 2.527 0 013.365-1.179 2.508 2.508 0 011.175 3.354z" fill="#804431"/><path fill-rule="evenodd" clip-rule="evenodd" d="M299.958 70.97c5.925 2.707 11.011 5.883 13.973 7.868 1.947-2.724 2.963-5.757 4.255-8.884.714-1.741-.05-4.646-.461-7.213-.437-2.71-1.737-5.24-3.852-6.997-1.209-1.002-1.788-1.81-1.31-4.037.94-4.349 9.543-31.226 9.543-31.226l-14.956-3.456s-10.256 22.246-12.429 25.391c-1.998 2.879-7.881 2.1-15.417 1.92 1.267 6.372-.924 13.747-4.314 19.308 9.282-1.825 17.431 3.881 24.968 7.326z" fill="#944F39"/><mask id="a" maskUnits="userSpaceOnUse" x="295" y="17" width="12" height="25"><path fill-rule="evenodd" clip-rule="evenodd" d="M295.509 41.098c2.753-4.952 9.45-19.33 11.212-23.137-1.762 3.806-8.459 18.185-11.212 23.137z" fill="#fff"/></mask><g mask="url(#a)"><path fill-rule="evenodd" clip-rule="evenodd" d="M295.509 41.098c2.753-4.952 9.45-19.33 11.212-23.137-1.762 3.806-8.459 18.185-11.212 23.137z" fill="url(#paint0_linear)"/></g><path fill-rule="evenodd" clip-rule="evenodd" d="M332.21 21.852a.65.65 0 01-.898.187.654.654 0 01-.193-.9.65.65 0 111.091.713z" fill="#06181D"/><path fill-rule="evenodd" clip-rule="evenodd" d="M304.893 20.979s2.274-4.597 3.894-9.489S313.889.798 319.311.157c5.422-.641 10.6.689 13.814 3.828 2.082 2.03 2.946 4.577 3.299 6.123.142.644.159 1.019-.445.752-1.914-.847-4.683-.788-5.657 3.23-1.225 5.06-5.296 4.214-6.294 7.394l-1.469-.666s1.972-4.759 2.937-6.484c-2.131-.8-5.195 3.038-8.946 6.708-3.76 3.67-11.657-.064-11.657-.064z" fill="#23253C"/><path fill-rule="evenodd" clip-rule="evenodd" d="M320.024 26.14a6.452 6.452 0 01-3.038-8.628c1.544-3.219 5.413-4.578 8.644-3.032l-5.606 11.66z" fill="#804431"/><path fill-rule="evenodd" clip-rule="evenodd" d="M321.35 23.383a3.404 3.404 0 01-1.603-4.546 3.42 3.42 0 014.558-1.599l-2.955 6.145z" fill="#6B3929"/><path fill-rule="evenodd" clip-rule="evenodd" d="M272.984 47.575c10.457-5.736 14.15-5.062 21.72-6.66 0 0 14.595 3.196 20.822 7.992 6.236 4.797 17.985 17.41 17.809 28.955-.185 11.547-2.14 28.067-2.14 28.067l-18.338-1.954s-4.801 14.922-5.875 25.225c0 0-9.609 5.329-34.888 2.664-25.278-2.664-23.675-5.151-23.675-5.151s.092-22.56 5.077-43.166c4.985-20.606 12.371-32.064 19.488-35.972z" fill="#F1F1F3"/><path opacity=".1" fill-rule="evenodd" clip-rule="evenodd" d="M299.596 131.421v-.002c3.475-27.623 16.198-48.317 16.198-48.317s-1.687 11.457-2.938 20.872c0 0-4.8 14.922-5.874 25.226-.067.039-2.325 1.252-7.386 2.221z" fill="#000"/><path fill-rule="evenodd" clip-rule="evenodd" d="M304.112 578.474c-6.396-3.131-6.815-9.944-3.66-13.701 3.156-3.758 3.114-5.856 8.888-10.636 5.774-4.78 8.376-4.043 14.427-5.54 6.043-1.496 6.823-4.803 10.81-9.77 3.978-4.967 7.906-7.465 14.552-8.549 6.656-1.084 8.636.406 15.409-2.807 6.781-3.214 5.397-7.437 12.715-8.902 8.77-1.756 20.763 8.806 21.393 15.781 1.108 12.16-21.838 18.426-21.838 18.426s-1.813 1.572-6.303 6.635-7.117 6.086-14.938 5.636c-7.822-.449-11.582 2.017-14.729 4.895-3.148 2.877-8.544 4.076-13.319 3.047-4.767-1.027-8.234.156-12.262 3.025-4.028 2.869-8.821 3.599-11.145 2.46z" fill="#23253C"/><path fill-rule="evenodd" clip-rule="evenodd" d="M395.7 538.318c1.468 7.767-.345 14.658-7.067 15.93-5.715 1.083-11.909-4.229-13.772-11.913-1.863-7.671-.134-14.597 7.805-16.121 11.405-2.19 11.556 4.336 13.034 12.104z" fill="#EEC4B0"/><path fill-rule="evenodd" clip-rule="evenodd" d="M369.372 542.52l-.192-.942.352-.592a5.834 5.834 0 00-.16 1.534zm1.822-4.335l5.455-9.17.663-.278c-2.132 1.96-3.088 4.793-3.13 8.035a5.623 5.623 0 00-2.988 1.413zm22.081-9.072c-1.183-2.053-3.105-3.332-6.621-3.332-.848 0-1.78.073-2.82.229l4.49-1.879s2.904 1.133 4.96 4.98l-.009.002z" fill="#25488C"/><path fill-rule="evenodd" clip-rule="evenodd" d="M369.801 544.625l-.051-.272c.034.09.067.18.109.268l-.058.004zm25.253-9.819a39.406 39.406 0 00-.579-2.628c0-.011 0-.022-.008-.034v.001a17.693 17.693 0 00-.479-1.509 18.084 18.084 0 011.066 4.17zm-1.713-5.573c-.017-.039-.042-.076-.067-.113l.008-.003c.017.039.042.077.059.116z" fill="#2E2C2C"/><path opacity=".1" fill-rule="evenodd" clip-rule="evenodd" d="M374.978 542.814a8.794 8.794 0 01-.117-.479 26.169 26.169 0 01-.537-2.888c-.11-.913-.16-1.805-.143-2.669.042-3.242.999-6.074 3.13-8.035l6.521-2.728a19.069 19.069 0 012.82-.23c3.517 0 5.439 1.279 6.622 3.333a.73.73 0 01.067.113c.227.433.445.902.646 1.405.177.478.336.982.479 1.509-.378.008-.764.029-1.133.075a8.68 8.68 0 00-2.375.675c-.848-.518-1.595-1.019-1.989-1.339-2.77-2.248-3.517-4.642-3.769-5.455-2.475 1.065-3.55 4.948-5.094 8.887a7.568 7.568 0 00-1.125.717l-.033.145.159.057v-.002c.26-.123.521-.248.781-.366-1.133 2.787-2.543 5.537-4.91 7.275zm20.091-7.916c-.663-.071-2.249-.891-3.676-1.74.134-.04.269-.077.403-.11a11.158 11.158 0 011.603-.314c.386-.058.78-.091 1.166-.113a1.855 1.855 0 01-.092-.441c.218.826.403 1.708.579 2.628.009.029.009.06.017.09z" fill="#2E2C2C"/><path fill-rule="evenodd" clip-rule="evenodd" d="M398.764 525.986c-1.973-3.748-7.654-8.804-15.367-6.38-6.546 2.056-9.064 7.262-9.064 7.262l-6.496 16.196c11.254-.726 11.045-13.371 13.89-15.349 1.225-.854 2.937-1.556 3.709-1.898 2.98 6.082 8.049 2.516 9.954 4.054 2.551 2.051 1.922 9.283 2.526 9.169.604-.114 3.861-7.323.848-13.054z" fill="#23253C"/><path fill-rule="evenodd" clip-rule="evenodd" d="M419.577 665.04a1.608 1.608 0 01-1.377-.775c-22.24-36.879-116.464-128.965-117.412-129.89a1.605 1.605 0 01-.025-2.261 1.604 1.604 0 012.266-.025c.957.928 95.466 93.301 117.924 130.527.453.757.21 1.74-.554 2.194-.252.156-.537.23-.822.23z" fill="#9F9FB3"/><path fill-rule="evenodd" clip-rule="evenodd" d="M73.39 538.253s15.754 0 17.885-1.065C93.415 536.123 84.2 522 84.2 522l-19.487 1.998 8.678 14.255z" fill="#EEC4B0"/><path fill-rule="evenodd" clip-rule="evenodd" d="M93.45 521.294c-2.628-5.132-10.492-16.131-14.604-21.411l-16.735 11.928s7.142 9.255 18.49 21.644c1.149 1.255 4.002 4.264 9.34 4.13 5.346-.133 7.612-8.26 3.508-16.291z" fill="#EEC4B0"/><path fill-rule="evenodd" clip-rule="evenodd" d="M41.29 454.527c-1.662-.32-1.536 1.807-1.536 1.807-1.662-.319-3.852 1.63-2.543 1.912 1.317.282 4.767 3.612 4.767 3.612s-5.036-1.739-5.237-.563c-.193 1.177 7.746 4.778 10.104 7.78 2.359 3.001 4.734 9.174 11.406 19.966 5.229 8.466 30.381 31.521 35.568 35.09-2.543-21.05-43.323-69.944-46.999-71.827-1.678-.863-2.82.612-2.82.612-2.182-.658-2.71 1.611-2.71 1.611z" fill="#EEC4B0"/><path opacity=".1" fill-rule="evenodd" clip-rule="evenodd" d="M79.4 538.027l-8.963-13.439a12.87 12.87 0 001.738-.613 432.669 432.669 0 007.822 8.822c-.37 2.952-.596 5.23-.596 5.23z" fill="#000"/><path opacity=".1" fill-rule="evenodd" clip-rule="evenodd" d="M79.996 532.801a432.972 432.972 0 01-7.822-8.822c3.374-1.431 8.569-4.66 12.362-7.668.227.199.445.395.663.59-.789.74-1.662 1.719-2.602 3.011-.99 1.38-1.989 8.043-2.601 12.889z" fill="#2E2C2C"/><path opacity=".1" fill-rule="evenodd" clip-rule="evenodd" d="M85.2 516.897c-.219-.195-.437-.391-.663-.59 1.418-1.12 2.635-2.21 3.5-3.164l1.074 1.456s-1.57.09-3.911 2.298z" fill="#000"/><path fill-rule="evenodd" clip-rule="evenodd" d="M38.687 436.465l3.475 4.559a.913.913 0 01-.554 1.452l-3.038.589.117-6.6z" fill="#EA928F"/><path fill-rule="evenodd" clip-rule="evenodd" d="M39.325 438.256c.327 10.71-.009 20.271-10.919 19.58-4.213-.267-9.148-11.331-10.012-22.011-.873-10.662-4.91-16.152 6.043-16.519 15.736-.526 14.552 8.241 14.888 18.95z" fill="#EEC4B0"/><path fill-rule="evenodd" clip-rule="evenodd" d="M39.098 432.396c-.42.073-.83.107-1.233.141l-1.209.097c-.403.031-.797.071-1.192.115-.193.025-.386.046-.587.077l-.294.043-.151.024-.084.012-.05.008-.042.008-.042.006c-.017-.002 0 .008-.084-.007l-.151-.126a.22.22 0 01.109-.302.231.231 0 01.302.109l-.151-.122c-.084-.014-.059-.005-.067-.008l-.034.002v-.005l.025-.02.06-.048.142-.093c.092-.06.193-.113.293-.165a4.41 4.41 0 01.622-.246 5.917 5.917 0 011.292-.247 7.237 7.237 0 011.3.02c.429.046.857.128 1.268.275a.233.233 0 01.143.299.228.228 0 01-.176.152l-.009.001z" fill="#2E2C2C"/><path fill-rule="evenodd" clip-rule="evenodd" d="M37.773 442.61a2.957 2.957 0 01-2.87 3.044 2.952 2.952 0 01-3.047-2.861 2.96 2.96 0 015.917-.183z" fill="#EA928F"/><path fill-rule="evenodd" clip-rule="evenodd" d="M5.688 486.045c13.378 6.721 28.996 8.03 43.885 9.4l-.151-1.579c-.193-2.204-2.56-4.827-4.381-7.282-1.93-2.593-4.666-4.529-7.822-5.222-1.805-.394-2.845-.927-3.55-3.511-1.377-5.045-6.974-37.744-6.974-37.744l-17.482 4.465s1.36 28.759.789 33.219c-.344 2.676-1.385 5.519-4.314 8.254z" fill="#EEC4B0"/><mask id="b" maskUnits="userSpaceOnUse" x="9" y="473" width="2" height="6"><path fill-rule="evenodd" clip-rule="evenodd" d="M9.926 478.215a3.8 3.8 0 00.075-.424c.1-.776.143-2.285.143-4.25 0 1.965-.042 3.475-.143 4.25-.017.139-.033.279-.059.419a.062.062 0 00-.016.005z" fill="#fff"/></mask><g mask="url(#b)"><path fill-rule="evenodd" clip-rule="evenodd" d="M9.926 478.215a3.8 3.8 0 00.075-.424c.1-.776.143-2.285.143-4.25 0 1.965-.042 3.475-.143 4.25-.017.139-.033.279-.059.419a.062.062 0 00-.016.005z" fill="url(#paint1_linear)"/></g><path fill-rule="evenodd" clip-rule="evenodd" d="M37.983 436.082a.76.76 0 01-.839.682.763.763 0 01-.68-.837.766.766 0 01.84-.683c.42.043.73.418.68.838z" fill="#06181D"/><path fill-rule="evenodd" clip-rule="evenodd" d="M8.801 456.983c-4.85-.919-7.654-5.984-6.118-10.673 1.125-3.443 1.679-7.578-.293-10.885-5.22-8.768.772-20.754 11.413-19.561 11.062 1.239 15.795-3.061 20.848-1.52 3.273.996 3.583 4.859 1.368 7.205-.538.564.721.975-.06 1.023-2.458.152-5.312 1.705-4.154 6.426 1.46 5.946-3.247 7.26-2.56 11.116l-1.887.098s-.52-6.033-.462-8.352c-2.652.313-5.59 5.666-5.699 11.832-.21 12.684-6.596 14.387-12.396 13.291z" fill="#23253C"/><path fill-rule="evenodd" clip-rule="evenodd" d="M27.592 447.134c-4.204.13-7.72-3.167-7.855-7.363-.126-4.197 3.18-7.704 7.385-7.833l.47 15.196z" fill="#EA928F"/><path fill-rule="evenodd" clip-rule="evenodd" d="M27.475 443.543a4.003 4.003 0 01-4.13-3.88c-.075-2.211 1.67-4.059 3.886-4.128l.244 8.008z" fill="#AC4637"/><path fill-rule="evenodd" clip-rule="evenodd" d="M.535 506.412c-1.578-7.879.034-19.795 8.905-28.068 0 0 13.184-3.588 22.433-3.907 9.24-.319 28.92.612 37.43 11.201 8.52 10.589 19.161 27.014 19.161 27.014-3.222 3.972-13.923 10.913-18.069 11.95 0 0 14.88 27.107 12.203 44.427 0 0-2.67 5.063-26.16 8.526-17.725 2.613-33.377-2.93-33.377-2.93s4.8-12.524-2.938-30.909C10.447 520.74 2.943 518.402.535 506.412z" fill="#F1F1F3"/><path opacity=".1" fill-rule="evenodd" clip-rule="evenodd" d="M79.51 571.397c-8.536-31.09-22.14-67.893-22.14-67.893s7.075 11.64 13.025 21.098c0 0 1.326 2.723 3.416 6.915 4.062 8.865 10.171 24.494 8.955 36.239v.007c0 .022-.009.044-.009.066v.017c-.008.039-.008.077-.017.116v.015c0 .02 0 .039-.008.059v.027c-.008.035-.008.071-.017.107v.02c0 .019 0 .037-.008.057v.027c0 .019-.008.036-.008.055 0 .023-.009.048-.009.072 0 .015 0 .029-.008.044v.05c-.009.012-.009.025-.009.039 0 .025-.008.053-.008.079 0 .011-.009.022-.009.034 0 .019-.008.038-.008.057v.033c-.008.027-.008.056-.017.083v.025c-.008.021-.008.046-.008.068-.008.009-.008.019-.008.028 0 .029-.009.059-.017.089v.004c-.042.074-.613 1.029-3.089 2.363z" fill="#000"/><path fill-rule="evenodd" clip-rule="evenodd" d="M73.307 530.37c-4.389.895-7.159 3.432-5.95 4.365 1.2.933 7.033-.932 7.033-.932s-6.454 1.156-6.185 3.291c.268 2.134 7.26.022 7.26.022s-5.187 1.317-4.642 3.426c.546 2.109 5.153-.199 5.153-.199s-3.71 1.458-3.097 2.793c.621 1.337 4.045.67 5.497-1.762 1.444-2.433 2.09-8.972-1.426-13.034-3.525-4.061-6.32-3.653-6.32-3.653l2.677 5.683z" fill="#EEC4B0"/><defs><linearGradient id="paint0_linear" x1="311.399" y1="4.334" x2="288.002" y2="13.539" gradientUnits="userSpaceOnUse"><stop stop-color="#F4DAC6"/><stop offset="1" stop-color="#FFFFFE"/></linearGradient><linearGradient id="paint1_linear" x1="19.412" y1="436.851" x2="2.078" y2="446.266" gradientUnits="userSpaceOnUse"><stop stop-color="#F4DAC6"/><stop offset="1" stop-color="#FFFFFE"/></linearGradient></defs></svg>